<svg width="238" height="30" viewBox="0 0 238 30" fill="none" xmlns="http://www.w3.org/2000/svg">
<path d="M216.892 23.6129C215.684 23.6129 214.64 23.4184 213.76 23.0295C212.88 22.6405 212.204 22.0878 211.734 21.3714C211.263 20.6344 211.027 19.7644 211.027 18.7613C211.027 17.8197 211.242 16.9906 211.672 16.2741C212.102 15.5372 212.757 14.923 213.637 14.4317C214.538 13.9404 215.654 13.5924 216.984 13.3877L222.112 12.5587V15.9363L217.813 16.704C217.158 16.8268 216.657 17.0418 216.309 17.3488C215.961 17.6354 215.787 18.0551 215.787 18.6078C215.787 19.1196 215.981 19.5187 216.37 19.8053C216.759 20.0919 217.24 20.2352 217.813 20.2352C218.571 20.2352 219.236 20.0715 219.809 19.7439C220.383 19.4164 220.823 18.9763 221.13 18.4236C221.457 17.8504 221.621 17.226 221.621 16.5505V12.1902C221.621 11.5556 221.365 11.0233 220.853 10.5935C220.362 10.1636 219.687 9.94863 218.827 9.94863C218.008 9.94863 217.281 10.1738 216.647 10.6242C216.032 11.0745 215.582 11.6682 215.296 12.4051L211.611 10.6549C211.938 9.71322 212.46 8.90462 213.177 8.22908C213.893 7.55355 214.753 7.03154 215.756 6.66306C216.759 6.29459 217.854 6.11035 219.042 6.11035C220.454 6.11035 221.703 6.36624 222.788 6.87801C223.873 7.38978 224.712 8.10626 225.306 9.02744C225.92 9.92816 226.227 10.9824 226.227 12.1902V23.2444H221.928V20.5423L222.972 20.358C222.481 21.095 221.938 21.7091 221.345 22.2004C220.751 22.6712 220.086 23.0193 219.349 23.2444C218.612 23.4901 217.793 23.6129 216.892 23.6129Z" fill="white"/>
<path d="M197.977 30C197.485 30 197.004 29.959 196.534 29.8772C196.083 29.7953 195.684 29.6622 195.336 29.478V25.7011C195.623 25.783 195.96 25.8546 196.349 25.916C196.738 25.9775 197.096 26.0082 197.424 26.0082C198.325 26.0082 198.97 25.7932 199.359 25.3633C199.747 24.9539 200.065 24.4831 200.31 23.9509L201.447 21.3408L201.385 25.1791L194.016 6.479H198.959L203.842 19.7748H201.999L206.882 6.479H211.825L204.64 24.8106C204.19 25.957 203.637 26.9191 202.982 27.697C202.327 28.4749 201.58 29.0481 200.74 29.4166C199.921 29.8055 199 30 197.977 30Z" fill="white"/>
<path d="M188.926 23.2448V6.47919H193.532V23.2448H188.926ZM188.926 4.97459V0.368652H193.532V4.97459H188.926Z" fill="white"/>
<path d="M177.69 23.6131C176.052 23.6131 174.589 23.2241 173.299 22.4463C172.009 21.6684 170.986 20.6141 170.228 19.2835C169.492 17.9529 169.123 16.479 169.123 14.8618C169.123 13.2242 169.502 11.7503 170.259 10.4401C171.017 9.10952 172.04 8.05527 173.33 7.27738C174.619 6.49949 176.063 6.11054 177.659 6.11054C178.888 6.11054 179.973 6.34595 180.914 6.81678C181.876 7.26714 182.634 7.91197 183.187 8.75128L182.48 9.67246V0H187.086V23.2446H182.787V20.174L183.217 21.1259C182.644 21.9447 181.866 22.5691 180.884 22.999C179.901 23.4084 178.836 23.6131 177.69 23.6131ZM178.243 19.4678C179.082 19.4678 179.819 19.2733 180.454 18.8843C181.088 18.4954 181.58 17.9529 181.928 17.2569C182.296 16.5609 182.48 15.7625 182.48 14.8618C182.48 13.9611 182.296 13.1627 181.928 12.4667C181.58 11.7707 181.088 11.2282 180.454 10.8393C179.819 10.4504 179.082 10.2559 178.243 10.2559C177.404 10.2559 176.646 10.4606 175.971 10.87C175.315 11.259 174.804 11.8014 174.435 12.4974C174.067 13.173 173.883 13.9611 173.883 14.8618C173.883 15.7625 174.067 16.5609 174.435 17.2569C174.804 17.9529 175.315 18.4954 175.971 18.8843C176.646 19.2733 177.404 19.4678 178.243 19.4678Z" fill="white"/>
<path d="M160.64 23.6129C158.859 23.6129 157.313 23.224 156.003 22.4461C154.693 21.6477 153.68 20.5832 152.963 19.2526C152.247 17.922 151.889 16.4481 151.889 14.8309C151.889 13.1523 152.257 11.6579 152.994 10.3478C153.752 9.03768 154.765 8.0039 156.034 7.24648C157.303 6.48906 158.736 6.11035 160.333 6.11035C161.663 6.11035 162.841 6.3253 163.864 6.75518C164.888 7.1646 165.747 7.74802 166.443 8.50544C167.16 9.26286 167.702 10.1431 168.071 11.1462C168.439 12.1288 168.624 13.2035 168.624 14.3703C168.624 14.6979 168.603 15.0254 168.562 15.3529C168.542 15.66 168.491 15.9261 168.409 16.1513H155.85V12.7736H165.799L163.618 14.3703C163.823 13.4901 163.813 12.7122 163.588 12.0367C163.363 11.3406 162.963 10.7982 162.39 10.4092C161.838 9.99981 161.152 9.7951 160.333 9.7951C159.535 9.7951 158.849 9.98957 158.276 10.3785C157.702 10.7675 157.273 11.3406 156.986 12.0981C156.699 12.8555 156.587 13.7767 156.648 14.8616C156.566 15.8033 156.679 16.6324 156.986 17.3488C157.293 18.0653 157.764 18.6283 158.398 19.0377C159.033 19.4266 159.801 19.6211 160.701 19.6211C161.52 19.6211 162.216 19.4573 162.789 19.1298C163.383 18.8023 163.844 18.3519 164.171 17.7787L167.856 19.529C167.528 20.3478 167.006 21.0643 166.29 21.6784C165.594 22.2925 164.765 22.7736 163.803 23.1216C162.841 23.4491 161.786 23.6129 160.64 23.6129Z" fill="white"/>
<path d="M135.717 23.2446V0H140.323V9.79529L139.77 9.05834C140.159 8.05527 140.783 7.31832 141.643 6.84749C142.523 6.35619 143.547 6.11054 144.714 6.11054C145.983 6.11054 147.088 6.37666 148.03 6.9089C148.992 7.44114 149.739 8.18833 150.272 9.15046C150.804 10.0921 151.07 11.1975 151.07 12.4667V23.2446H146.464V13.4493C146.464 12.7943 146.331 12.2313 146.065 11.7605C145.819 11.2897 145.461 10.9212 144.99 10.6551C144.54 10.3889 144.007 10.2559 143.393 10.2559C142.8 10.2559 142.267 10.3889 141.797 10.6551C141.326 10.9212 140.957 11.2897 140.691 11.7605C140.446 12.2313 140.323 12.7943 140.323 13.4493V23.2446H135.717Z" fill="white"/>
<path d="M123.903 23.6131C122.265 23.6131 120.74 23.3163 119.328 22.7226C117.915 22.129 116.677 21.2999 115.612 20.2354C114.548 19.1709 113.719 17.9222 113.125 16.4892C112.531 15.0563 112.234 13.4903 112.234 11.7912C112.234 10.0921 112.521 8.5261 113.094 7.09314C113.667 5.63971 114.476 4.39099 115.52 3.34698C116.564 2.2825 117.782 1.46366 119.174 0.89048C120.586 0.296827 122.122 0 123.78 0C125.438 0 126.922 0.276356 128.232 0.829069C129.563 1.38178 130.689 2.11873 131.61 3.03992C132.531 3.9611 133.186 4.98464 133.575 6.11054L129.368 8.13715C128.98 7.03173 128.294 6.12078 127.311 5.4043C126.349 4.66735 125.172 4.29887 123.78 4.29887C122.429 4.29887 121.242 4.61617 120.218 5.25077C119.194 5.88536 118.396 6.76561 117.823 7.8915C117.27 8.99693 116.994 10.2968 116.994 11.7912C116.994 13.2856 117.291 14.5957 117.884 15.7216C118.478 16.8475 119.287 17.7277 120.31 18.3623C121.354 18.9969 122.552 19.3142 123.903 19.3142C124.947 19.3142 125.919 19.1197 126.82 18.7308C127.741 18.3214 128.478 17.738 129.031 16.9805C129.604 16.2231 129.89 15.3122 129.89 14.2477V12.3439L132.071 14.1863H123.78V10.1945H134.65V12.6203C134.65 14.4831 134.343 16.1105 133.729 17.5026C133.115 18.8741 132.286 20.0205 131.242 20.9417C130.218 21.8424 129.061 22.5179 127.772 22.9683C126.503 23.3982 125.213 23.6131 123.903 23.6131Z" fill="white"/>
<path d="M91.7441 23.2446V0H96.3501V9.79529L95.7974 9.05834C96.1863 8.05527 96.8107 7.31832 97.6704 6.84749C98.5507 6.35619 99.5742 6.11054 100.741 6.11054C102.01 6.11054 103.116 6.37666 104.057 6.9089C105.019 7.44114 105.767 8.18833 106.299 9.15046C106.831 10.0921 107.097 11.1975 107.097 12.4667V23.2446H102.491V13.4493C102.491 12.7943 102.358 12.2313 102.092 11.7605C101.847 11.2897 101.488 10.9212 101.017 10.6551C100.567 10.3889 100.035 10.2559 99.4207 10.2559C98.8271 10.2559 98.2948 10.3889 97.824 10.6551C97.3531 10.9212 96.9847 11.2897 96.7186 11.7605C96.4729 12.2313 96.3501 12.7943 96.3501 13.4493V23.2446H91.7441Z" fill="white"/>
<path d="M84.0473 23.6129C82.205 23.6129 80.598 23.183 79.2265 22.3232C77.8754 21.443 76.9542 20.2659 76.4629 18.792L79.8406 17.1953C80.2705 18.096 80.8539 18.8023 81.5908 19.314C82.3278 19.8258 83.1466 20.0817 84.0473 20.0817C84.7024 20.0817 85.2039 19.9486 85.5519 19.6825C85.8999 19.4164 86.0739 19.0479 86.0739 18.5771C86.0739 18.3314 86.0125 18.1267 85.8897 17.963C85.7669 17.7787 85.5827 17.615 85.337 17.4717C85.0914 17.3284 84.7843 17.2055 84.4158 17.1032L81.5601 16.3048C80.1886 15.9159 79.1343 15.2915 78.3974 14.4317C77.6604 13.5515 77.292 12.5177 77.292 11.3304C77.292 10.2864 77.5581 9.37545 78.0903 8.59756C78.6226 7.81966 79.3697 7.21578 80.3319 6.78589C81.294 6.33553 82.3994 6.11035 83.6482 6.11035C85.2858 6.11035 86.7188 6.4993 87.947 7.27719C89.1958 8.03461 90.076 9.10933 90.5878 10.5013L87.1794 12.0981C86.9337 11.4021 86.4834 10.8493 85.8283 10.4399C85.1937 10.01 84.467 9.7951 83.6482 9.7951C83.0545 9.7951 82.5837 9.91793 82.2357 10.1636C81.9081 10.4092 81.7444 10.747 81.7444 11.1769C81.7444 11.4021 81.8058 11.6068 81.9286 11.791C82.0514 11.9752 82.2459 12.139 82.512 12.2823C82.7986 12.4256 83.1466 12.5587 83.556 12.6815L86.2275 13.4798C87.6195 13.8893 88.684 14.5136 89.4209 15.3529C90.1579 16.1718 90.5264 17.1851 90.5264 18.3928C90.5264 19.4369 90.25 20.3478 89.6973 21.1257C89.165 21.9036 88.4179 22.5177 87.4557 22.9681C86.4936 23.398 85.3575 23.6129 84.0473 23.6129Z" fill="white"/>
<path d="M68.3157 23.6129C66.5348 23.6129 64.9892 23.224 63.6791 22.4461C62.369 21.6477 61.3557 20.5832 60.6392 19.2526C59.9227 17.922 59.5645 16.4481 59.5645 14.8309C59.5645 13.1523 59.9329 11.6579 60.6699 10.3478C61.4273 9.03768 62.4406 8.0039 63.7098 7.24648C64.979 6.48906 66.4119 6.11035 68.0087 6.11035C69.3393 6.11035 70.5164 6.3253 71.5399 6.75518C72.5634 7.1646 73.4232 7.74802 74.1192 8.50544C74.8357 9.26286 75.3782 10.1431 75.7467 11.1462C76.1151 12.1288 76.2994 13.2035 76.2994 14.3703C76.2994 14.6979 76.2789 15.0254 76.238 15.3529C76.2175 15.66 76.1663 15.9261 76.0844 16.1513H63.5256V12.7736H73.4744L71.2942 14.3703C71.499 13.4901 71.4887 12.7122 71.2635 12.0367C71.0384 11.3406 70.6392 10.7982 70.066 10.4092C69.5133 9.99981 68.8275 9.7951 68.0087 9.7951C67.2103 9.7951 66.5245 9.98957 65.9514 10.3785C65.3782 10.7675 64.9483 11.3406 64.6617 12.0981C64.3751 12.8555 64.2625 13.7767 64.3239 14.8616C64.242 15.8033 64.3546 16.6324 64.6617 17.3488C64.9688 18.0653 65.4396 18.6283 66.0742 19.0377C66.7088 19.4266 67.4764 19.6211 68.3771 19.6211C69.196 19.6211 69.892 19.4573 70.4652 19.1298C71.0588 18.8023 71.5194 18.3519 71.847 17.7787L75.5317 19.529C75.2042 20.3478 74.6822 21.0643 73.9657 21.6784C73.2697 22.2925 72.4406 22.7736 71.4785 23.1216C70.5164 23.4491 69.4621 23.6129 68.3157 23.6129Z" fill="white"/>
<path d="M46.215 30C45.7237 30 45.2426 29.959 44.7718 29.8772C44.3215 29.7953 43.9223 29.6622 43.5743 29.478V25.7011C43.8609 25.783 44.1986 25.8546 44.5876 25.916C44.9765 25.9775 45.3348 26.0082 45.6623 26.0082C46.563 26.0082 47.2078 25.7932 47.5968 25.3633C47.9857 24.9539 48.303 24.4831 48.5487 23.9509L49.6848 21.3408L49.6234 25.1791L42.2539 6.479H47.1976L52.0799 19.7748H50.2375L55.1198 6.479H60.0635L52.8783 24.8106C52.4279 25.957 51.8752 26.9191 51.2201 27.697C50.5651 28.4749 49.8179 29.0481 48.9786 29.4166C48.1597 29.8055 47.2386 30 46.215 30Z" fill="white"/>
<path d="M32.5198 23.2446L25.918 6.479H30.8924L35.4676 19.1607H33.5638L38.1391 6.479H43.1135L36.5116 23.2446H32.5198Z" fill="white"/>
<path d="M20.8262 23.2448V6.47919H25.4321V23.2448H20.8262ZM20.8262 4.97459V0.368652H25.4321V4.97459H20.8262Z" fill="white"/>
<path d="M0 23.2448V0.368652H7.46162C9.93859 0.368652 12.088 0.859952 13.9099 1.84255C15.7318 2.82515 17.1443 4.17623 18.1474 5.89578C19.1505 7.61532 19.652 9.58052 19.652 11.7914C19.652 14.0022 19.1505 15.9777 18.1474 17.7177C17.1443 19.4372 15.7318 20.7883 13.9099 21.7709C12.088 22.7535 9.93859 23.2448 7.46162 23.2448H0ZM4.75947 19.0995H7.58445C9.07882 19.0995 10.3685 18.8026 11.4534 18.209C12.5384 17.5949 13.3777 16.7453 13.9713 15.6604C14.5855 14.5549 14.8925 13.2653 14.8925 11.7914C14.8925 10.297 14.5855 9.00734 13.9713 7.92239C13.3777 6.83743 12.5384 5.99813 11.4534 5.40448C10.3685 4.81082 9.07882 4.514 7.58445 4.514H4.75947V19.0995Z" fill="white"/>
<path d="M232.857 22.9401C231.632 22.9401 230.567 22.5025 229.663 21.6272C228.787 20.7228 228.35 19.6578 228.35 18.4325C228.35 17.2071 228.787 16.1568 229.663 15.2815C230.567 14.377 231.632 13.9248 232.857 13.9248C234.083 13.9248 235.133 14.377 236.008 15.2815C236.913 16.1568 237.365 17.2071 237.365 18.4325C237.365 19.6578 236.913 20.7228 236.008 21.6272C235.133 22.5025 234.083 22.9401 232.857 22.9401Z" fill="#006AEE"/>
</svg>
