<svg width="175" height="47" viewBox="0 0 175 47" fill="none" xmlns="http://www.w3.org/2000/svg">
<path d="M31.895 11.7334C34.633 11.7334 36.8525 9.51383 36.8525 6.77587C36.8525 4.03791 34.633 1.81836 31.895 1.81836C29.1571 1.81836 26.9375 4.03791 26.9375 6.77587C26.9375 9.51383 29.1571 11.7334 31.895 11.7334Z" fill="#00B22D"/>
<path d="M174.999 6.61001C174.999 2.97451 172.135 0 168.499 0C164.974 0 162.055 2.91942 162.055 6.61001C162.055 10.2455 164.919 13.22 168.499 13.22C172.135 13.2751 174.999 10.3006 174.999 6.61001ZM168.499 11.4023C166.021 11.4023 164.093 9.3091 164.093 6.61001C164.093 3.96601 166.021 1.87284 168.499 1.87284C171.033 1.87284 173.016 3.96601 173.016 6.61001C173.016 9.3091 171.033 11.4023 168.499 11.4023Z" fill="#00B22D"/>
<path d="M170.264 7.16129C170.594 7.05113 171.31 6.55537 171.31 5.50879C171.31 4.24187 170.484 3.4707 169.107 3.4707H166.188V9.69514H168.115V7.60196H168.611L169.493 9.69514H171.586L170.429 7.54688C170.319 7.21637 170.264 7.16129 170.264 7.16129ZM168.611 6.27996H168.115V4.7927H168.611C169.052 4.7927 169.272 5.01304 169.272 5.50879C169.327 6.00454 169.052 6.27996 168.611 6.27996Z" fill="#00B22D"/>
<path d="M37.0712 14.9833H14.3768V13.4961C14.3768 10.5767 17.2962 10.5216 18.7835 10.5216C20.491 10.5216 21.2622 10.6868 21.2622 10.6868V2.64465C21.2622 2.64465 19.7199 2.42432 17.6267 2.42432C12.8895 2.42432 4.13126 3.74631 4.13126 13.7715V15.0384H0V22.4747H4.13126V38.1735H0.275417V45.6097H18.8936V38.1735H14.3768V22.4747H26.7706V38.1735H22.9147V45.6097H40.927V38.1735H37.0712V14.9833ZM75.6296 14.9833H59.38V22.4196H62.1341L58.6088 33.4363C57.9478 35.254 57.7826 37.4574 57.7826 37.4574H57.5622C57.5622 37.4574 57.397 35.254 56.736 33.4363L53.2106 22.4196H55.9648V14.9833H39.7152V22.4196H43.1304L51.6132 45.5547H63.7316L72.2144 22.4196H75.6296V14.9833ZM105.705 29.0296C105.705 20.5468 100.582 14.2673 91.4936 14.2673C81.6337 14.2673 75.5745 21.2629 75.5745 30.2415C75.5745 38.3938 81.4684 46.2707 92.375 46.2707C100.637 46.2707 105.54 41.9742 105.54 41.9742L101.794 34.8685C101.794 34.8685 97.7181 37.7879 93.2012 37.7879C89.9513 37.7879 86.8666 36.0803 86.0955 32.1694H105.485C105.43 32.1143 105.705 30.0211 105.705 29.0296ZM86.3158 26.4958C86.8666 24.1272 88.2988 21.9789 91.2182 21.9789C93.4766 21.9789 95.0741 24.0721 95.0741 26.4958H86.3158ZM149.166 22.034H149.056C149.056 22.034 149.166 21.4281 149.166 20.4917V18.8943C149.166 16.085 147.624 14.9833 144.814 14.9833H135.175V22.4196H138.039C138.865 22.4196 139.361 22.9154 139.361 23.7416V38.1735H135.23V45.6097H153.793V38.1735H149.662V33.7117C149.662 28.1483 152.416 24.5128 158.09 24.5128C159.356 24.5128 160.183 24.678 160.183 24.678V14.5978C160.183 14.5978 159.577 14.4876 158.971 14.4876C154.344 14.4325 150.488 17.8477 149.166 22.034ZM122.01 22.034H121.9C121.9 22.034 122.01 21.4281 122.01 20.4917V18.8943C122.01 16.085 120.468 14.9833 117.658 14.9833H108.019V22.4196H110.883C111.709 22.4196 112.205 22.9154 112.205 23.7416V38.1735H108.074V45.6097H126.637V38.1735H122.506V33.7117C122.506 28.1483 125.26 24.5128 130.933 24.5128C132.2 24.5128 133.027 24.678 133.027 24.678V14.5978C133.027 14.5978 132.421 14.4876 131.815 14.4876C127.133 14.4325 123.277 17.8477 122.01 22.034Z" fill="#00B22D"/>
</svg>
