<svg width="57" height="41" viewBox="0 0 57 41" fill="none" xmlns="http://www.w3.org/2000/svg">
<path d="M44.0749 3.44774C37.9665 3.47727 33.3212 7.51858 31.5833 13.9578C28.6672 9.4691 26.3918 4.33514 25.0865 0L18.6562 0.0295316L18.7359 17.0733C18.743 18.6938 18.1063 20.2508 16.9659 21.402C15.8254 22.5533 14.2745 23.2046 12.654 23.2128C11.0335 23.2199 9.47654 22.5832 8.32529 21.4427C7.17404 20.3023 6.52273 18.7514 6.51453 17.1309L6.43332 0.0871163L0 0.116648L0.0797341 17.1604C0.113695 24.2331 5.76444 29.8381 12.6806 29.8041C19.5967 29.7701 25.1988 24.1164 25.1663 17.0423L25.1515 14.1483C26.4479 16.713 28.0692 19.4387 29.8514 21.844L25.9193 40.6744L32.5106 40.6449L35.3456 26.9632C37.9251 28.5609 40.8088 29.5103 44.199 29.494C51.2746 29.4601 57.0375 23.6469 57.0006 16.2494C56.9737 12.8411 55.5996 9.58191 53.1782 7.1832C50.7568 4.78448 47.4848 3.44109 44.0764 3.44626L44.0749 3.44774ZM44.1665 22.9042C41.5943 22.916 39.0178 21.8027 36.9196 20.0427L37.5501 17.469V17.3214C38.0226 14.5839 39.443 9.91502 44.2684 9.89434C45.9698 9.89152 47.6034 10.5608 48.8138 11.7565C50.0242 12.9522 50.7133 14.5776 50.7312 16.2789C50.5865 19.9777 47.5463 22.8865 44.168 22.9027L44.1665 22.9042Z" fill="#6FDA44"/>
</svg>
