<svg width="40" height="40" viewBox="0 0 40 40" fill="none" xmlns="http://www.w3.org/2000/svg">
<path d="M20 0C31.0457 0 40 8.9543 40 20C40 31.0457 31.0457 40 20 40C8.9543 40 0 31.0457 0 20C0 8.9543 8.9543 0 20 0ZM11.542 22.8672V30.0332H27.6445V22.8672H25.8594V28.2363H13.3369V22.8672H11.542ZM15.1709 24.6533V26.4502H24.1445V24.6533H15.1709ZM15.3008 22.3682L24.0645 24.2148L24.4336 22.458L15.6699 20.6113L15.3008 22.3682ZM16.457 18.166L24.5732 21.9492L25.3311 20.332L17.2148 16.5596L16.457 18.166ZM18.7109 14.1748L25.5908 19.9131L26.7373 18.5459L19.8574 12.7969L18.7109 14.1748ZM21.7119 11.0107L27.0557 18.2061L28.4922 17.1387L23.1475 9.94238L21.7119 11.0107Z" fill="#7E7E7E"/>
</svg>
