<svg width="175" height="28" viewBox="0 0 175 28" fill="none" xmlns="http://www.w3.org/2000/svg">
<g clip-path="url(#clip0_94_1198)">
<path d="M11.4306 0.192327C14.4483 -0.33391 17.5554 0.159638 20.2615 1.5951C22.9677 3.03056 25.1188 5.3262 26.3756 8.11983C27.1682 9.84279 27.5744 11.7183 27.5656 13.6148C27.6208 16.9365 26.4705 20.1657 24.3276 22.7044C22.1847 25.2431 19.1944 26.9192 15.9106 27.4223C14.8665 27.5595 13.8121 27.6005 12.7606 27.5448C9.82987 27.334 7.04454 26.1868 4.81557 24.2723C2.708 22.4527 1.19086 20.046 0.458071 17.3598C0.25255 16.5955 0.100515 15.8178 0.00307101 15.0323C-0.084357 14.0426 -0.084357 13.0471 0.00307102 12.0573C0.377502 9.11327 1.69172 6.36856 3.75048 4.23099C5.80923 2.09342 8.50265 0.67705 11.4306 0.192327Z" fill="#F97609"/>
<path d="M12.6686 2.51979C14.6281 2.33058 16.603 2.65472 18.3992 3.46034C20.1954 4.26596 21.751 5.52529 22.9128 7.11446C24.0747 8.70363 24.8029 10.5679 25.0257 12.5238C25.2485 14.4798 24.9583 16.46 24.1836 18.2698C23.153 20.6124 21.3659 22.5413 19.1086 23.7473C16.7751 24.993 14.0788 25.381 11.4888 24.8438C8.89876 24.3066 6.57912 22.8782 4.93357 20.8073C3.67448 19.2151 2.86657 17.3137 2.59442 15.3022C2.32227 13.2906 2.59588 11.2429 3.38663 9.37341C4.17737 7.5039 5.45615 5.88134 7.08911 4.67559C8.72206 3.46985 10.6491 2.72526 12.6686 2.51979Z" fill="white"/>
<path d="M7.47254 7.80517C8.02248 7.72463 8.58374 7.82315 9.07339 8.08615C9.56303 8.34916 9.95508 8.7627 10.1916 9.26568C10.4281 9.76865 10.4966 10.3344 10.3868 10.8792C10.2771 11.4241 9.99497 11.9192 9.58217 12.2914C9.16938 12.6636 8.64781 12.8931 8.09453 12.9461C7.54125 12.999 6.98561 12.8726 6.50972 12.5854C6.03384 12.2983 5.66295 11.8656 5.45186 11.3515C5.24078 10.8373 5.2007 10.2689 5.33754 9.73017C5.46559 9.23537 5.73622 8.78912 6.1158 8.44688C6.49538 8.10463 6.96718 7.88148 7.47254 7.80517Z" fill="#F97609"/>
<path d="M19.0591 7.82261C19.7286 7.70945 20.4158 7.86189 20.9746 8.24752C21.5335 8.63315 21.9198 9.22155 22.0516 9.88761C22.0918 10.2254 22.0651 10.5679 21.973 10.8954C21.8809 11.2229 21.7251 11.529 21.5147 11.7963C21.3042 12.0637 21.0432 12.2869 20.7465 12.4533C20.4498 12.6198 20.1232 12.7261 19.7854 12.7664C19.4475 12.8066 19.1051 12.7799 18.7776 12.6877C18.4501 12.5956 18.1439 12.4399 17.8766 12.2294C17.6093 12.019 17.3861 11.758 17.2196 11.4613C17.0532 11.1645 16.9468 10.8379 16.9066 10.5001C16.8965 9.87854 17.1072 9.27355 17.5014 8.79284C17.8956 8.31214 18.4476 7.98693 19.0591 7.87511V7.82261Z" fill="#F97609"/>
<path d="M86.5709 16.6775C86.239 16.7037 85.9054 16.7037 85.5734 16.6775C85.3634 16.6775 85.3284 16.38 85.3459 16.1875V6.16C85.4118 5.6885 85.3195 5.20845 85.0834 4.795C84.8877 4.61525 84.6536 4.48244 84.3989 4.40664C84.1442 4.33083 83.8756 4.31403 83.6134 4.3575C82.8966 4.31377 82.1778 4.31377 81.4609 4.3575V6.58C81.85 6.52782 82.2443 6.52782 82.6334 6.58C82.7375 6.89554 82.7733 7.22959 82.7384 7.56V17.185C82.6881 17.5749 82.7551 17.9709 82.9309 18.3225C83.1228 18.5704 83.3951 18.7437 83.7009 18.8125H86.5709C86.5709 18.1475 86.5884 17.5 86.5709 16.6775Z" fill="white"/>
<path d="M140.841 16.6775C140.538 16.6948 140.234 16.6948 139.931 16.6775C139.835 16.6603 139.75 16.6074 139.691 16.5295C139.633 16.4516 139.606 16.3543 139.616 16.2575V12.0225C139.632 11.24 139.458 10.4655 139.109 9.76498C138.913 9.41138 138.645 9.10265 138.322 8.85856C138 8.61448 137.63 8.4404 137.236 8.34748C136.648 8.19807 136.036 8.16599 135.436 8.25306C134.835 8.34014 134.258 8.54467 133.736 8.85498C133.176 9.21553 132.714 9.70835 132.389 10.29C132.494 9.09998 132.389 7.90998 132.389 6.78998C132.473 6.16236 132.394 5.52376 132.161 4.93498C132.014 4.76268 131.827 4.62825 131.617 4.54299C131.407 4.45773 131.18 4.42412 130.954 4.44498C130.149 4.44498 129.361 4.44498 128.556 4.44498C128.512 5.191 128.512 5.93895 128.556 6.68498C128.955 6.65241 129.357 6.68193 129.746 6.77248C129.765 6.94115 129.765 7.1113 129.746 7.27997V18.9875H132.354V13.895C132.332 13.0938 132.585 12.3093 133.071 11.6725C133.348 11.3223 133.702 11.0417 134.106 10.8532C134.51 10.6648 134.953 10.5738 135.399 10.5875C135.626 10.5815 135.852 10.6254 136.061 10.7161C136.269 10.8068 136.456 10.9421 136.606 11.1125C136.867 11.5638 136.994 12.0794 136.974 12.6V17.36C136.942 17.7305 137.021 18.1021 137.201 18.4275C137.32 18.5766 137.472 18.6956 137.646 18.7747C137.819 18.8538 138.009 18.8907 138.199 18.8825H140.841C140.859 18.1475 140.929 17.395 140.841 16.6775Z" fill="white"/>
<path d="M41.8788 9.0827C41.3594 8.707 40.7678 8.44304 40.1413 8.3075C39.5148 8.17196 38.867 8.16777 38.2388 8.29519C37.7561 8.38288 37.2962 8.5677 36.8871 8.83844C36.478 9.10918 36.1281 9.46019 35.8587 9.8702C35.8931 9.53925 35.8324 9.20537 35.6837 8.9077C35.5491 8.75475 35.3815 8.63433 35.1935 8.55552C35.0056 8.47671 34.8022 8.44155 34.5988 8.45269H32.2188C32.2188 9.1877 32.2188 9.9227 32.2188 10.6577C32.5627 10.6399 32.9073 10.6399 33.2513 10.6577C33.5138 10.6577 33.4787 11.0427 33.4787 11.2527V22.7502C33.4787 22.8727 33.4787 23.0827 33.6712 23.0477H36.0513C36.0513 21.2977 36.0513 19.5477 36.0513 17.7977C36.4088 18.2386 36.8633 18.5911 37.3792 18.8279C37.8952 19.0646 38.4588 19.1792 39.0262 19.1627C39.7395 19.189 40.4487 19.0437 41.0942 18.7392C41.7398 18.4347 42.3029 17.9798 42.7362 17.4127C43.7131 15.9729 44.0782 14.2041 43.7513 12.4952C43.6036 11.1546 42.9302 9.92736 41.8788 9.0827ZM41.0737 14.8402C40.904 15.4479 40.564 15.9944 40.0938 16.4152C39.7592 16.6702 39.3662 16.8375 38.9505 16.9016C38.5348 16.9658 38.1096 16.9249 37.7137 16.7827C37.4067 16.6577 37.1277 16.4726 36.8933 16.2382C36.6589 16.0037 36.4737 15.7248 36.3488 15.4177C35.9571 14.4936 35.8833 13.4657 36.1387 12.4952C36.2252 12.0773 36.4122 11.6868 36.6836 11.3574C36.955 11.0281 37.3026 10.7699 37.6963 10.6052C38.0792 10.4623 38.4913 10.4147 38.8967 10.4665C39.3022 10.5184 39.689 10.668 40.0238 10.9027C40.5155 11.2859 40.8664 11.8213 41.0213 12.4252C41.2393 13.2133 41.2573 14.0434 41.0737 14.8402Z" fill="white"/>
<path d="M50.4729 8.22507C49.7263 8.19836 48.9827 8.33128 48.2916 8.61496C47.6005 8.89864 46.9779 9.32654 46.4654 9.87007C45.96 10.4788 45.5819 11.1828 45.3535 11.9403C45.125 12.6978 45.0509 13.4934 45.1354 14.2801C45.2584 15.3898 45.7092 16.4377 46.4304 17.2901C46.9644 17.875 47.6207 18.3351 48.3527 18.6375C49.0847 18.94 49.8743 19.0774 50.6654 19.0401C52.2309 19.0768 53.7537 18.5276 54.9354 17.5001C54.5679 16.9051 54.2004 16.3101 53.8504 15.7501C53.1694 16.2983 52.3641 16.6709 51.5054 16.8351C50.996 16.9326 50.4709 16.9089 49.9723 16.7661C49.4738 16.6232 49.0158 16.3651 48.6354 16.0126C48.1539 15.4841 47.8535 14.8159 47.7779 14.1051H54.9879C55.1205 13.3124 55.0846 12.5006 54.8826 11.7227C54.6806 10.9448 54.317 10.2181 53.8154 9.59007C53.3882 9.13689 52.8688 8.78056 52.2922 8.5451C51.7156 8.30964 51.0952 8.20051 50.4729 8.22507ZM51.8729 12.3376H47.8829C47.9523 11.9692 48.103 11.621 48.324 11.3183C48.545 11.0155 48.8307 10.7659 49.1604 10.5876C49.517 10.3639 49.9295 10.2453 50.3504 10.2453C50.7714 10.2453 51.1838 10.3639 51.5404 10.5876C51.7979 10.803 52.0073 11.0701 52.155 11.3715C52.3027 11.673 52.3855 12.0021 52.3979 12.3376H51.8729Z" fill="white"/>
<path d="M66.5013 9.90507C65.4821 8.93753 64.1629 8.34752 62.7623 8.23293C61.3617 8.11833 59.9641 8.48605 58.8013 9.27507C58.1885 9.70098 57.6701 10.2487 57.2787 10.8841C56.8873 11.5194 56.6311 12.2287 56.5263 12.9676C56.4912 13.4336 56.4912 13.9016 56.5263 14.3676C56.665 15.4449 57.122 16.4564 57.8388 17.2726C58.8872 18.3379 60.2873 18.9857 61.778 19.0951C63.2687 19.2046 64.7484 18.7683 65.9413 17.8676C66.578 17.3605 67.088 16.7124 67.4312 15.9744C67.7744 15.2364 67.9413 14.4287 67.9188 13.6151C67.9503 12.2405 67.4413 10.9084 66.5013 9.90507ZM64.5763 15.8901C64.0579 16.4667 63.3412 16.8266 62.5691 16.898C61.7971 16.9694 61.0265 16.7469 60.4113 16.2751C59.8527 15.7871 59.4635 15.1344 59.3 14.4109C59.1364 13.6875 59.2069 12.9308 59.5013 12.2501C59.7156 11.7761 60.0491 11.3657 60.4693 11.059C60.8895 10.7523 61.382 10.5597 61.8988 10.5001C62.3412 10.4468 62.7899 10.4913 63.2132 10.6304C63.6365 10.7695 64.0242 10.9998 64.3488 11.3051C64.9226 11.9223 65.2545 12.7259 65.2835 13.5682C65.3124 14.4105 65.0364 15.2349 64.5063 15.8901H64.5763Z" fill="white"/>
<path d="M78.5375 8.9774C78.0276 8.63919 77.456 8.40483 76.8554 8.28772C76.2549 8.17061 75.6371 8.17305 75.0375 8.2949C74.0617 8.4827 73.1998 9.0489 72.64 9.8699C72.6778 9.53318 72.617 9.19273 72.465 8.8899C72.3287 8.74012 72.1603 8.623 71.9725 8.54726C71.7846 8.47151 71.5821 8.43909 71.38 8.4524H69V10.6749C69.3437 10.6485 69.6888 10.6485 70.0325 10.6749C70.2775 10.6749 70.2425 11.0599 70.2425 11.2699C70.2425 15.1724 70.2425 19.0574 70.2425 22.9599H72.85C72.85 21.2099 72.85 19.4599 72.85 17.7099C73.256 18.2045 73.7795 18.5895 74.3725 18.8299C75.0466 19.062 75.7643 19.1398 76.4725 19.0574C77.1992 18.9842 77.8974 18.7357 78.507 18.3334C79.1166 17.9311 79.6195 17.3868 79.9725 16.7474C80.6101 15.3887 80.7942 13.8611 80.4975 12.3899C80.4135 11.7195 80.1969 11.0725 79.8604 10.4867C79.5239 9.9008 79.0742 9.38775 78.5375 8.9774ZM77.5575 15.5924C77.282 16.1271 76.8218 16.5437 76.2625 16.7649C75.8628 16.9252 75.4271 16.9741 75.0018 16.9063C74.5765 16.8385 74.1775 16.6566 73.8475 16.3799C73.265 15.8411 72.9033 15.1052 72.8325 14.3149C72.7146 13.457 72.842 12.5833 73.2 11.7949C73.3513 11.4798 73.5688 11.201 73.8375 10.9776C74.1063 10.7541 74.4201 10.5912 74.7575 10.4999C75.099 10.4167 75.454 10.4048 75.8002 10.465C76.1465 10.5252 76.4767 10.6563 76.77 10.8499C77.0881 11.0942 77.3541 11.3997 77.5524 11.7483C77.7508 12.0969 77.8774 12.4816 77.925 12.8799C78.0996 13.8 77.9706 14.7519 77.5575 15.5924Z" fill="white"/>
<path d="M94.0972 8.31238C92.7305 8.04416 91.313 8.28042 90.1072 8.97738C89.0095 9.67267 88.2203 10.7625 87.9022 12.0224C87.7094 12.8061 87.6561 13.6177 87.7447 14.4199C87.8268 15.1488 88.0608 15.8525 88.4315 16.4855C88.8023 17.1184 89.3016 17.6667 89.8972 18.0949C90.9253 18.8004 92.1507 19.1619 93.3972 19.1274C94.8996 19.0997 96.3438 18.5419 97.4747 17.5524C97.1072 16.9574 96.7397 16.3624 96.3897 15.8024C95.739 16.3321 94.9709 16.6981 94.1497 16.8699C93.6365 16.9844 93.1033 16.9743 92.5948 16.8403C92.0863 16.7063 91.6173 16.4524 91.2272 16.0999C90.7183 15.5721 90.4037 14.8873 90.3347 14.1574H97.5272C97.724 12.9114 97.5347 11.6351 96.9847 10.4999C96.6981 9.94213 96.2899 9.45594 95.79 9.0773C95.2902 8.69865 94.7117 8.43723 94.0972 8.31238ZM90.4572 12.2499C90.5199 11.8882 90.6603 11.5444 90.8688 11.2423C91.0773 10.9402 91.3488 10.6869 91.6647 10.4999C92.026 10.2805 92.4407 10.1645 92.8634 10.1645C93.2862 10.1645 93.7008 10.2805 94.0622 10.4999C94.3361 10.7027 94.5592 10.9664 94.7141 11.27C94.8689 11.5736 94.9513 11.909 94.9547 12.2499H90.4572Z" fill="white"/>
<path d="M150.991 9.20486C150.148 8.66128 149.187 8.32688 148.189 8.22948C147.19 8.13207 146.183 8.27449 145.251 8.64486C144.588 8.90426 143.984 9.29323 143.473 9.78903C142.962 10.2848 142.555 10.8775 142.276 11.5324C141.912 12.4216 141.783 13.3898 141.903 14.3432C142.022 15.2967 142.386 16.2031 142.959 16.9749C143.506 17.6615 144.205 18.2128 145 18.586C145.795 18.9593 146.665 19.1445 147.544 19.1274C148.183 19.1265 148.818 19.0382 149.434 18.8649C150.393 18.5625 151.256 18.0133 151.936 17.2724C152.582 16.5352 153.02 15.639 153.205 14.6762C153.389 13.7134 153.314 12.7188 152.986 11.7949C152.603 10.7469 151.907 9.84252 150.991 9.20486ZM150.029 15.7499C149.683 16.1761 149.23 16.5027 148.716 16.6965C148.203 16.8902 147.647 16.944 147.106 16.8524C146.633 16.7717 146.185 16.5807 145.799 16.295C145.412 16.0092 145.099 15.6366 144.884 15.2074C144.482 14.3515 144.425 13.3737 144.726 12.4774C144.923 11.9507 145.26 11.488 145.701 11.1395C146.143 10.7909 146.671 10.5697 147.229 10.4999C147.685 10.4404 148.149 10.4851 148.585 10.6306C149.021 10.7761 149.419 11.0186 149.749 11.3399C150.295 11.9307 150.621 12.6918 150.672 13.4951C150.723 14.2984 150.496 15.0947 150.029 15.7499Z" fill="white"/>
<path d="M174.996 8.3477C174.153 8.26048 173.307 8.48202 172.615 8.9712C171.923 9.46038 171.432 10.184 171.233 11.0077C171.273 10.425 171.273 9.84035 171.233 9.2577C171.133 9.03739 170.97 8.85168 170.764 8.72399C170.559 8.59629 170.32 8.53234 170.078 8.5402H167.453V10.6752C167.853 10.6219 168.259 10.6578 168.643 10.7802C168.67 10.9776 168.67 11.1778 168.643 11.3752V18.8827H171.216V16.5027C171.195 15.4399 171.289 14.3779 171.496 13.3352C171.575 12.8886 171.755 12.4659 172.022 12.0991C172.289 11.7322 172.635 11.4309 173.036 11.2177C173.643 10.9197 174.324 10.8043 174.996 10.8852V8.3477Z" fill="white"/>
<path d="M106.834 8.90739C105.948 8.46141 104.944 8.30238 103.964 8.45239C103.345 8.54833 102.761 8.79701 102.263 9.17592C101.764 9.55483 101.369 10.052 101.111 10.6224C101.111 10.2199 101.111 9.81739 101.111 9.41489C101.064 9.23996 100.965 9.08321 100.828 8.96473C100.691 8.84625 100.521 8.77144 100.341 8.74989C99.8644 8.69744 99.3831 8.69744 98.9062 8.74989V9.44989C99.2912 9.44989 99.6937 9.44989 100.079 9.44989C100.359 9.83489 100.201 10.3424 100.219 10.7974C100.219 12.6349 100.219 14.4724 100.219 16.3099C100.219 17.1149 100.219 17.9199 100.219 18.7249C100.219 19.5299 100.219 20.4749 100.219 21.4374C100.184 21.9443 100.184 22.453 100.219 22.9599H101.059C101.059 20.9474 101.059 18.9174 101.059 16.9049C101.395 17.7167 102.018 18.3768 102.809 18.7599C103.549 19.068 104.36 19.1708 105.154 19.0574C105.71 19.0062 106.251 18.8416 106.741 18.5737C107.232 18.3059 107.662 17.9404 108.006 17.4999C108.513 16.7908 108.87 15.9862 109.057 15.1349C109.243 14.2836 109.255 13.4034 109.091 12.5474C109.018 11.8086 108.776 11.0965 108.385 10.4656C107.993 9.83466 107.463 9.30165 106.834 8.90739ZM108.251 14.3674C108.237 14.9842 108.096 15.5914 107.837 16.1514C107.578 16.7114 107.207 17.2121 106.746 17.6224C106.186 18.0359 105.509 18.2591 104.812 18.2591C104.116 18.2591 103.439 18.0359 102.879 17.6224C102.378 17.2336 101.965 16.7451 101.663 16.1877C101.362 15.6303 101.18 15.0164 101.129 14.3849C100.976 13.185 101.183 11.9669 101.724 10.8849C101.947 10.441 102.268 10.0532 102.662 9.75026C103.055 9.44729 103.512 9.23696 103.999 9.13489C104.887 8.95919 105.809 9.13483 106.571 9.62489C107.321 10.1934 107.853 11.003 108.076 11.9174C108.268 12.719 108.327 13.5467 108.251 14.3674Z" fill="white"/>
<path d="M116.777 8.46983C115.468 8.26925 114.133 8.5828 113.05 9.34483C112.389 9.85701 111.86 10.5197 111.507 11.2776C111.154 12.0355 110.987 12.8668 111.02 13.7023C110.996 14.4685 111.14 15.2306 111.443 15.935C111.745 16.6395 112.198 17.2692 112.77 17.7798C113.421 18.3508 114.199 18.7582 115.039 18.9682C115.879 19.1783 116.757 19.1848 117.6 18.9873C118.498 18.7641 119.332 18.3324 120.032 17.7273L119.56 16.9923C118.835 17.6829 117.906 18.1194 116.912 18.2362C115.917 18.3529 114.912 18.1437 114.047 17.6398C113.385 17.2133 112.848 16.6199 112.488 15.9195C112.129 15.219 111.96 14.4362 112 13.6498H120.172C120.273 12.9369 120.221 12.2105 120.019 11.5194C119.817 10.8283 119.469 10.1883 119 9.64233C118.413 9.01061 117.63 8.59713 116.777 8.46983ZM112 12.8273C112.098 12.1607 112.336 11.5224 112.7 10.9548C112.984 10.4933 113.363 10.0982 113.813 9.79624C114.263 9.4943 114.773 9.29261 115.307 9.20483C116.137 9.05845 116.991 9.20704 117.722 9.62483C118.215 9.98285 118.614 10.4546 118.885 11.0001C119.156 11.5455 119.292 12.1483 119.28 12.7573L112 12.8273Z" fill="white"/>
<path d="M166.615 16.6776C166.277 16.6953 165.938 16.6953 165.6 16.6776C165.505 16.6322 165.428 16.555 165.383 16.4592C165.339 16.3634 165.329 16.255 165.355 16.1526V8.45264H162.748V12.9676C162.814 13.8938 162.574 14.8161 162.065 15.5926C161.755 16.0488 161.31 16.3957 160.791 16.5842C160.273 16.7727 159.708 16.7931 159.178 16.6426C158.912 16.5355 158.683 16.3521 158.521 16.1154C158.36 15.8787 158.271 15.5994 158.268 15.3126C158.224 14.625 158.224 13.9353 158.268 13.2476V9.74764C158.281 9.44558 158.188 9.14841 158.005 8.90764C157.872 8.77026 157.711 8.66319 157.533 8.59373C157.355 8.52427 157.164 8.49405 156.973 8.50514H154.383C154.383 9.24014 154.383 9.97514 154.383 10.7101C154.784 10.6728 155.188 10.7144 155.573 10.8326C155.626 11.2451 155.626 11.6626 155.573 12.0751V15.3126C155.533 16.2594 155.804 17.1933 156.343 17.9726C156.609 18.3019 156.941 18.5717 157.318 18.7646C157.695 18.9575 158.108 19.0693 158.53 19.0926C159.232 19.1723 159.942 19.1007 160.613 18.8826C161.561 18.541 162.339 17.8445 162.783 16.9401C162.738 17.3804 162.773 17.8252 162.888 18.2526C163 18.4566 163.169 18.6243 163.374 18.7359C163.578 18.8474 163.81 18.8984 164.043 18.8826H166.545C166.615 18.1476 166.633 17.5001 166.615 16.6776Z" fill="white"/>
<path d="M125.547 9.02999C124.749 9.60197 124.168 10.4291 123.903 11.375C123.903 10.745 123.903 10.1325 123.903 9.50249C123.889 9.33482 123.827 9.17466 123.725 9.0412C123.622 8.90774 123.483 8.80663 123.325 8.74999C122.802 8.6802 122.273 8.6802 121.75 8.74999V9.44999C122.076 9.43249 122.404 9.43249 122.73 9.44999C122.975 9.44999 123.08 9.74749 123.063 9.95749V18.865H123.92V14.5425C123.901 13.5326 124.098 12.5303 124.497 11.6025C124.781 10.8351 125.31 10.183 126.003 9.74749C126.544 9.48013 127.156 9.38837 127.753 9.48499C127.753 9.20499 127.753 8.90749 127.753 8.62749C126.993 8.48843 126.209 8.63156 125.547 9.02999Z" fill="white"/>
</g>
<defs>
<clipPath id="clip0_94_1198">
<rect width="175" height="27.5625" fill="white"/>
</clipPath>
</defs>
</svg>
