
<svg width="1440" height="890" viewBox="0 0 1440 890" fill="none" xmlns="http://www.w3.org/2000/svg">
<g opacity="0.3">
<mask id="mask0_94_478" style="mask-type:luminance" maskUnits="userSpaceOnUse" x="0" y="0" width="1440" height="890">
<path d="M1440 0H0V890H1440V0Z" fill="white"/>
</mask>
<g mask="url(#mask0_94_478)">
<path d="M-621.281 -7.69246H2055.9L2054.44 -6.91545L1307.57 390.612H127.049L126.618 390.379L-621.281 -7.69246ZM2050.56 -6.66014H-615.934L128.635 389.618H1306L2050.56 -6.66014Z" fill="#7E7E7E"/>
<path d="M-486.266 -6.93764L-483.767 -7.4427L188.029 389.851L185.53 390.362L-486.266 -6.93764Z" fill="#7E7E7E"/>
<path d="M-352.711 -6.95985L-350.145 -7.42051L247.009 389.873L244.438 390.34L-352.711 -6.95985Z" fill="#7E7E7E"/>
<path d="M-219.148 -6.98203L-216.511 -7.39829L305.996 389.901L303.359 390.318L-219.148 -6.98203Z" fill="#7E7E7E"/>
<path d="M-85.5938 -7.00979L-82.8946 -7.37055L364.971 389.923L362.272 390.29L-85.5938 -7.00979Z" fill="#7E7E7E"/>
<path d="M47.9766 -7.032L50.7321 -7.3428L423.951 389.951L421.195 390.262L47.9766 -7.032Z" fill="#7E7E7E"/>
<path d="M181.539 -7.0653L184.341 -7.31506L482.918 389.979L480.116 390.234L181.539 -7.0653Z" fill="#7E7E7E"/>
<path d="M315.117 -7.09306L317.96 -7.28732L541.89 390.012L539.047 390.201L315.117 -7.09306Z" fill="#7E7E7E"/>
<path d="M448.695 -7.12636L451.569 -7.25402L600.852 390.04L597.984 390.173L448.695 -7.12636Z" fill="#7E7E7E"/>
<path d="M582.273 -7.15967L585.162 -7.22072L659.809 390.073L656.92 390.14L582.273 -7.15967Z" fill="#7E7E7E"/>
<path d="M718.759 -7.19294H715.859V390.107H718.759V-7.19294Z" fill="#7E7E7E"/>
<path d="M774.812 390.073L849.454 -7.22072L852.348 -7.15967L777.702 390.14L774.812 390.073Z" fill="#7E7E7E"/>
<path d="M833.766 390.04L983.054 -7.25402L985.928 -7.12636L836.639 390.173L833.766 390.04Z" fill="#7E7E7E"/>
<path d="M892.734 390.012L1116.66 -7.28732L1119.51 -7.09306L895.577 390.201L892.734 390.012Z" fill="#7E7E7E"/>
<path d="M951.703 389.979L1250.28 -7.31506L1253.08 -7.0653L954.505 390.234L951.703 389.979Z" fill="#7E7E7E"/>
<path d="M1010.67 389.951L1383.89 -7.3428L1386.64 -7.032L1013.42 390.262L1010.67 389.951Z" fill="#7E7E7E"/>
<path d="M1069.65 389.923L1517.51 -7.37055L1520.21 -7.00979L1072.35 390.29L1069.65 389.923Z" fill="#7E7E7E"/>
<path d="M1128.62 389.901L1651.14 -7.39829L1653.77 -6.98203L1131.26 390.318L1128.62 389.901Z" fill="#7E7E7E"/>
<path d="M1187.61 389.873L1784.76 -7.42051L1787.33 -6.95985L1190.18 390.34L1187.61 389.873Z" fill="#7E7E7E"/>
<path d="M1246.59 389.851L1918.39 -7.4427L1920.89 -6.93764L1249.09 390.362L1246.59 389.851Z" fill="#7E7E7E"/>
<path d="M1324.65 380.1H109.969V381.104H1324.65V380.1Z" fill="#7E7E7E"/>
<path d="M1343.63 369.999H91V371.003H1343.63V369.999Z" fill="#7E7E7E"/>
<path d="M1363.83 359.248H70.7969V360.253H1363.83V359.248Z" fill="#7E7E7E"/>
<path d="M1385.37 347.776H49.25V348.78H1385.37V347.776Z" fill="#7E7E7E"/>
<path d="M1408.41 335.516H26.2109V336.52H1408.41V335.516Z" fill="#7E7E7E"/>
<path d="M1433.08 322.384H1.53125V323.389H1433.08V322.384Z" fill="#7E7E7E"/>
<path d="M1459.59 308.276H-24.9688V309.28H1459.59V308.276Z" fill="#7E7E7E"/>
<path d="M1488.13 293.085H-53.5156V294.09H1488.13V293.085Z" fill="#7E7E7E"/>
<path d="M1518.97 276.673H-84.3359V277.678H1518.97V276.673Z" fill="#7E7E7E"/>
<path d="M1552.36 258.902H-117.734V259.906H1552.36V258.902Z" fill="#7E7E7E"/>
<path d="M1588.66 239.582H-154.031V240.586H1588.66V239.582Z" fill="#7E7E7E"/>
<path d="M1628.25 218.502H-193.633V219.507H1628.25V218.502Z" fill="#7E7E7E"/>
<path d="M1671.63 195.42H-237V196.424H1671.63V195.42Z" fill="#7E7E7E"/>
<path d="M1719.33 170.028H-284.703V171.032H1719.33V170.028Z" fill="#7E7E7E"/>
<path d="M1772.06 141.966H-337.43V142.971H1772.06V141.966Z" fill="#7E7E7E"/>
<path d="M1830.63 110.786H-396.016V111.79H1830.63V110.786Z" fill="#7E7E7E"/>
<path d="M1896.11 75.9367H-461.484V76.9413H1896.11V75.9367Z" fill="#7E7E7E"/>
<path d="M1969.76 36.7362H-535.133V37.7408H1969.76V36.7362Z" fill="#7E7E7E"/>
<path d="M2055.9 904.281H-621.281L-619.824 903.504L127.049 505.976H1307.57L1308 506.209L2055.9 904.281ZM-615.934 903.276H2050.56L1305.99 506.998H128.635L-615.934 903.276Z" fill="#7E7E7E"/>
<path d="M1920.89 903.526L1918.39 904.031L1246.59 506.737L1249.09 506.226L1920.89 903.526Z" fill="#7E7E7E"/>
<path d="M1787.33 903.548L1784.76 904.009L1187.61 506.715L1190.18 506.248L1787.33 903.548Z" fill="#7E7E7E"/>
<path d="M1653.77 903.57L1651.14 903.986L1128.62 506.692L1131.26 506.271L1653.77 903.57Z" fill="#7E7E7E"/>
<path d="M1520.21 903.598L1517.51 903.964L1069.65 506.665L1072.35 506.298L1520.21 903.598Z" fill="#7E7E7E"/>
<path d="M1386.64 903.626L1383.89 903.936L1010.67 506.637L1013.42 506.326L1386.64 903.626Z" fill="#7E7E7E"/>
<path d="M1253.08 903.653L1250.28 903.903L951.703 506.609L954.505 506.354L1253.08 903.653Z" fill="#7E7E7E"/>
<path d="M1119.51 903.681L1116.66 903.875L892.734 506.576L895.577 506.387L1119.51 903.681Z" fill="#7E7E7E"/>
<path d="M985.928 903.714L983.054 903.842L833.766 506.548L836.639 506.415L985.928 903.714Z" fill="#7E7E7E"/>
<path d="M852.348 903.748L849.454 903.814L774.812 506.515L777.702 506.448L852.348 903.748Z" fill="#7E7E7E"/>
<path d="M718.759 506.481H715.859V903.781H718.759V506.481Z" fill="#7E7E7E"/>
<path d="M659.809 506.515L585.162 903.814L582.273 903.748L656.92 506.448L659.809 506.515Z" fill="#7E7E7E"/>
<path d="M600.852 506.548L451.569 903.842L448.695 903.714L597.984 506.415L600.852 506.548Z" fill="#7E7E7E"/>
<path d="M541.89 506.576L317.96 903.875L315.117 903.681L539.047 506.387L541.89 506.576Z" fill="#7E7E7E"/>
<path d="M482.918 506.609L184.341 903.903L181.539 903.653L480.116 506.354L482.918 506.609Z" fill="#7E7E7E"/>
<path d="M423.951 506.637L50.7321 903.936L47.9766 903.626L421.195 506.326L423.951 506.637Z" fill="#7E7E7E"/>
<path d="M364.971 506.665L-82.8946 903.964L-85.5938 903.598L362.272 506.298L364.971 506.665Z" fill="#7E7E7E"/>
<path d="M305.996 506.692L-216.511 903.986L-219.148 903.57L303.359 506.271L305.996 506.692Z" fill="#7E7E7E"/>
<path d="M247.009 506.715L-350.145 904.009L-352.711 903.548L244.438 506.248L247.009 506.715Z" fill="#7E7E7E"/>
<path d="M188.029 506.737L-483.767 904.031L-486.266 903.526L185.53 506.226L188.029 506.737Z" fill="#7E7E7E"/>
<path d="M1324.65 515.484H109.969V516.488H1324.65V515.484Z" fill="#7E7E7E"/>
<path d="M1343.63 525.585H91V526.589H1343.63V525.585Z" fill="#7E7E7E"/>
<path d="M1363.83 536.341H70.7969V537.346H1363.83V536.341Z" fill="#7E7E7E"/>
<path d="M1385.37 547.808H49.25V548.812H1385.37V547.808Z" fill="#7E7E7E"/>
<path d="M1408.41 560.068H26.2109V561.072H1408.41V560.068Z" fill="#7E7E7E"/>
<path d="M1433.08 573.199H1.53125V574.204H1433.08V573.199Z" fill="#7E7E7E"/>
<path d="M1459.59 587.308H-24.9688V588.312H1459.59V587.308Z" fill="#7E7E7E"/>
<path d="M1488.13 602.504H-53.5156V603.509H1488.13V602.504Z" fill="#7E7E7E"/>
<path d="M1518.97 618.91H-84.3359V619.915H1518.97V618.91Z" fill="#7E7E7E"/>
<path d="M1552.36 636.687H-117.734V637.692H1552.36V636.687Z" fill="#7E7E7E"/>
<path d="M1588.66 656.007H-154.031V657.012H1588.66V656.007Z" fill="#7E7E7E"/>
<path d="M1628.25 677.081H-193.633V678.085H1628.25V677.081Z" fill="#7E7E7E"/>
<path d="M1671.63 700.164H-237V701.168H1671.63V700.164Z" fill="#7E7E7E"/>
<path d="M1719.33 725.556H-284.703V726.56H1719.33V725.556Z" fill="#7E7E7E"/>
<path d="M1772.06 753.617H-337.43V754.622H1772.06V753.617Z" fill="#7E7E7E"/>
<path d="M1830.63 784.798H-396.016V785.802H1830.63V784.798Z" fill="#7E7E7E"/>
<path d="M1896.11 819.647H-461.484V820.651H1896.11V819.647Z" fill="#7E7E7E"/>
<path d="M1969.76 858.847H-535.133V859.852H1969.76V858.847Z" fill="#7E7E7E"/>
</g>
</g>
<rect width="1440" height="890" fill="url(#paint0_linear_94_478)"/>
<defs>
<linearGradient id="paint0_linear_94_478" x1="720" y1="0" x2="720" y2="890" gradientUnits="userSpaceOnUse">
<stop stop-color="#0F0F0F" stop-opacity="0"/>
<stop offset="0.0001" stop-color="#0F0F0F" stop-opacity="0.509259"/>
<stop offset="0.519231" stop-color="#0F0F0F"/>
<stop offset="0.827309" stop-color="#0F0F0F" stop-opacity="0.51"/>
<stop offset="1" stop-color="#0F0F0F"/>
</linearGradient>
</defs>
</svg>
