<svg width="8" height="5" viewBox="0 0 8 5" fill="none" xmlns="http://www.w3.org/2000/svg">
<mask id="mask0_94_1440" style="mask-type:alpha" maskUnits="userSpaceOnUse" x="-6" y="-14" width="20" height="28">
<rect x="-5.00833" y="-13.3333" width="18.6667" height="26.6667" fill="#D9D9D9"/>
</mask>
<g mask="url(#mask0_94_1440)">
<path d="M3.51163 4.23168L0.139535 0.803783C0.0930233 0.756501 0.0581395 0.70528 0.0348837 0.650118C0.0116279 0.594957 0 0.535855 0 0.472813C0 0.34673 0.0426357 0.236407 0.127907 0.141844C0.213178 0.0472813 0.325581 0 0.465116 0H7.53488C7.67442 0 7.78682 0.0472813 7.87209 0.141844C7.95736 0.236407 8 0.34673 8 0.472813C8 0.504334 7.95349 0.614657 7.86046 0.803783L4.48837 4.23168C4.41085 4.31048 4.33333 4.36564 4.25581 4.39716C4.17829 4.42868 4.09302 4.44444 4 4.44444C3.90698 4.44444 3.82171 4.42868 3.74419 4.39716C3.66667 4.36564 3.58915 4.31048 3.51163 4.23168Z" fill="white"/>
</g>
</svg>
