<svg width="40" height="40" viewBox="0 0 40 40" fill="none" xmlns="http://www.w3.org/2000/svg">
<path d="M20 0C8.99999 0 0 9.01606 0 20.1205C0 30.1607 7.31999 38.494 16.88 40V25.9438H11.8V20.1205H16.88V15.6827C16.88 10.6426 19.86 7.87148 24.44 7.87148C26.62 7.87148 28.9 8.253 28.9 8.253V13.2128H26.38C23.9 13.2128 23.12 14.759 23.12 16.3454V20.1205H28.68L27.78 25.9438H23.12V40C27.8328 39.2526 32.1244 36.8384 35.2198 33.1928C38.3152 29.5474 40.0107 24.9109 40 20.1205C40 9.01606 31 0 20 0Z" fill="#7E7E7E"/>
</svg>
