<svg width="355" height="45" viewBox="0 0 355 45" fill="none" xmlns="http://www.w3.org/2000/svg">
<path d="M324.381 35.3153C322.575 35.3153 321.013 35.0244 319.697 34.4427C318.38 33.861 317.37 33.0344 316.666 31.9628C315.961 30.8607 315.609 29.5595 315.609 28.0593C315.609 26.651 315.931 25.411 316.574 24.3395C317.217 23.2373 318.196 22.3188 319.513 21.584C320.86 20.8493 322.529 20.3288 324.519 20.0226L332.188 18.7827V23.8343L325.759 24.9824C324.779 25.1661 324.029 25.4876 323.508 25.9468C322.988 26.3754 322.728 27.003 322.728 27.8297C322.728 28.5951 323.018 29.1921 323.6 29.6207C324.182 30.0493 324.901 30.2636 325.759 30.2636C326.891 30.2636 327.886 30.0187 328.744 29.5289C329.601 29.039 330.259 28.3808 330.718 27.5541C331.208 26.6969 331.453 25.7631 331.453 24.7528V18.2316C331.453 17.2825 331.07 16.4865 330.305 15.8436C329.57 15.2006 328.56 14.8792 327.274 14.8792C326.049 14.8792 324.963 15.2159 324.013 15.8895C323.095 16.563 322.421 17.4509 321.993 18.5531L316.482 15.9354C316.972 14.5271 317.752 13.3177 318.824 12.3074C319.896 11.2971 321.181 10.5164 322.682 9.9653C324.182 9.41421 325.82 9.13867 327.596 9.13867C329.708 9.13867 331.576 9.52137 333.198 10.2868C334.821 11.0522 336.076 12.1237 336.964 13.5014C337.882 14.8485 338.342 16.4253 338.342 18.2316V34.7642H331.912V30.7229L333.474 30.4473C332.739 31.5495 331.928 32.468 331.04 33.2028C330.152 33.9069 329.157 34.4274 328.055 34.7642C326.953 35.1316 325.728 35.3153 324.381 35.3153Z" fill="white"/>
<path d="M296.088 44.8671C295.353 44.8671 294.634 44.8059 293.93 44.6834C293.256 44.561 292.659 44.362 292.139 44.0864V38.4378C292.567 38.5602 293.073 38.6674 293.654 38.7592C294.236 38.8511 294.772 38.897 295.262 38.897C296.609 38.897 297.573 38.5755 298.155 37.9326C298.737 37.3203 299.211 36.6161 299.578 35.8201L301.278 31.9166L301.186 37.6571L290.164 9.68945H297.558L304.86 29.5745H302.104L309.406 9.68945H316.8L306.054 37.106C305.38 38.8205 304.554 40.2594 303.574 41.4228C302.594 42.5862 301.477 43.4435 300.221 43.9946C298.997 44.5763 297.619 44.8671 296.088 44.8671Z" fill="white"/>
<path d="M282.555 34.764V9.68963H289.443V34.764H282.555ZM282.555 7.43936V0.550781H289.443V7.43936H282.555Z" fill="white"/>
<path d="M265.75 35.3154C263.301 35.3154 261.112 34.7337 259.183 33.5703C257.254 32.4069 255.724 30.8302 254.591 28.8402C253.489 26.8501 252.938 24.6458 252.938 22.2271C252.938 19.7779 253.504 17.5735 254.637 15.6141C255.769 13.6241 257.3 12.0474 259.229 10.884C261.158 9.72055 263.316 9.13884 265.704 9.13884C267.541 9.13884 269.164 9.49093 270.572 10.1951C272.011 10.8686 273.144 11.833 273.971 13.0883L272.914 14.466V0H279.803V34.7644H273.374V30.172L274.017 31.5956C273.159 32.8202 271.996 33.754 270.526 34.397C269.057 35.0093 267.465 35.3154 265.75 35.3154ZM266.577 29.1157C267.832 29.1157 268.934 28.8249 269.883 28.2432C270.833 27.6615 271.567 26.8501 272.088 25.8092C272.639 24.7683 272.914 23.5742 272.914 22.2271C272.914 20.88 272.639 19.686 272.088 18.6451C271.567 17.6041 270.833 16.7928 269.883 16.2111C268.934 15.6294 267.832 15.3386 266.577 15.3386C265.322 15.3386 264.189 15.6447 263.179 16.257C262.199 16.8387 261.433 17.6501 260.882 18.691C260.331 19.7013 260.056 20.88 260.056 22.2271C260.056 23.5742 260.331 24.7683 260.882 25.8092C261.433 26.8501 262.199 27.6615 263.179 28.2432C264.189 28.8249 265.322 29.1157 266.577 29.1157Z" fill="white"/>
<path d="M240.252 35.3153C237.589 35.3153 235.277 34.7336 233.318 33.5702C231.358 32.3761 229.843 30.7841 228.771 28.7941C227.7 26.804 227.164 24.5997 227.164 22.181C227.164 19.6705 227.715 17.4356 228.817 15.4762C229.95 13.5167 231.466 11.9706 233.364 10.8379C235.262 9.70507 237.405 9.13867 239.793 9.13867C241.783 9.13867 243.544 9.46014 245.074 10.1031C246.605 10.7154 247.891 11.5879 248.932 12.7207C250.004 13.8535 250.815 15.17 251.366 16.6702C251.917 18.1397 252.193 19.7471 252.193 21.4922C252.193 21.982 252.162 22.4719 252.101 22.9618C252.07 23.421 251.994 23.819 251.871 24.1558H233.088V19.1041H247.968L244.707 21.4922C245.013 20.1757 244.998 19.0123 244.661 18.002C244.324 16.961 243.727 16.1497 242.87 15.568C242.043 14.9557 241.018 14.6495 239.793 14.6495C238.599 14.6495 237.573 14.9404 236.716 15.5221C235.859 16.1038 235.216 16.961 234.787 18.0938C234.359 19.2266 234.19 20.6043 234.282 22.227C234.16 23.6353 234.328 24.8752 234.787 25.9468C235.247 27.0184 235.951 27.8603 236.9 28.4726C237.849 29.0543 238.997 29.3452 240.344 29.3452C241.569 29.3452 242.61 29.1002 243.467 28.6104C244.355 28.1205 245.044 27.447 245.534 26.5897L251.044 29.2074C250.555 30.432 249.774 31.5036 248.702 32.4221C247.661 33.3405 246.421 34.06 244.983 34.5805C243.544 35.0703 241.967 35.3153 240.252 35.3153Z" fill="white"/>
<path d="M202.977 34.7644V0H209.865V14.6497L209.039 13.5475C209.62 12.0474 210.554 10.9452 211.84 10.241C213.156 9.50624 214.687 9.13884 216.432 9.13884C218.33 9.13884 219.984 9.53685 221.392 10.3329C222.831 11.1289 223.948 12.2464 224.744 13.6853C225.54 15.0936 225.939 16.7469 225.939 18.6451V34.7644H219.05V20.1146C219.05 19.1349 218.851 18.293 218.453 17.5888C218.086 16.8847 217.55 16.3336 216.846 15.9356C216.172 15.5376 215.376 15.3386 214.458 15.3386C213.57 15.3386 212.774 15.5376 212.069 15.9356C211.365 16.3336 210.814 16.8847 210.416 17.5888C210.049 18.293 209.865 19.1349 209.865 20.1146V34.7644H202.977Z" fill="white"/>
<path d="M185.31 35.3154C182.861 35.3154 180.58 34.8715 178.468 33.9836C176.355 33.0958 174.503 31.8558 172.911 30.2638C171.319 28.6718 170.079 26.8042 169.191 24.6611C168.303 22.518 167.859 20.1759 167.859 17.6348C167.859 15.0936 168.288 12.7515 169.145 10.6084C170.002 8.43468 171.212 6.56711 172.773 5.0057C174.335 3.41367 176.156 2.18904 178.238 1.33179C180.351 0.44393 182.647 0 185.127 0C187.607 0 189.826 0.413315 191.786 1.23994C193.776 2.06657 195.46 3.16874 196.837 4.54646C198.215 5.92417 199.195 7.45497 199.776 9.13884L193.485 12.1698C192.903 10.5166 191.878 9.15415 190.408 8.0826C188.969 6.98042 187.209 6.42934 185.127 6.42934C183.106 6.42934 181.33 6.90388 179.8 7.85298C178.269 8.80207 177.075 10.1186 176.218 11.8024C175.391 13.4557 174.978 15.3998 174.978 17.6348C174.978 19.8697 175.422 21.8291 176.309 23.513C177.197 25.1969 178.407 26.5134 179.937 27.4625C181.499 28.4116 183.29 28.8861 185.31 28.8861C186.872 28.8861 188.326 28.5952 189.673 28.0135C191.051 27.4012 192.153 26.5287 192.98 25.3959C193.837 24.2631 194.266 22.9007 194.266 21.3087V18.4614L197.526 21.2168H185.127V15.2467H201.384V18.8747C201.384 21.6607 200.925 24.0947 200.006 26.1766C199.088 28.2279 197.848 29.9423 196.286 31.3201C194.755 32.6672 193.026 33.6775 191.097 34.351C189.199 34.994 187.27 35.3154 185.31 35.3154Z" fill="white"/>
<path d="M137.211 34.7644V0H144.1V14.6497L143.273 13.5475C143.855 12.0474 144.788 10.9452 146.074 10.241C147.391 9.50624 148.922 9.13884 150.667 9.13884C152.565 9.13884 154.218 9.53685 155.626 10.3329C157.065 11.1289 158.183 12.2464 158.979 13.6853C159.775 15.0936 160.173 16.7469 160.173 18.6451V34.7644H153.284V20.1146C153.284 19.1349 153.085 18.293 152.687 17.5888C152.32 16.8847 151.784 16.3336 151.08 15.9356C150.406 15.5376 149.61 15.3386 148.692 15.3386C147.804 15.3386 147.008 15.5376 146.304 15.9356C145.6 16.3336 145.049 16.8847 144.651 17.5888C144.283 18.293 144.1 19.1349 144.1 20.1146V34.7644H137.211Z" fill="white"/>
<path d="M125.703 35.3153C122.947 35.3153 120.544 34.6723 118.493 33.3865C116.472 32.07 115.094 30.3096 114.359 28.1052L119.411 25.7172C120.054 27.0643 120.926 28.1205 122.029 28.8859C123.131 29.6513 124.355 30.034 125.703 30.034C126.682 30.034 127.432 29.835 127.953 29.437C128.473 29.039 128.734 28.4879 128.734 27.7838C128.734 27.4164 128.642 27.1102 128.458 26.8653C128.274 26.5897 127.999 26.3448 127.631 26.1305C127.264 25.9162 126.805 25.7325 126.254 25.5794L121.983 24.3854C119.931 23.8037 118.355 22.8699 117.253 21.584C116.15 20.2676 115.599 18.7214 115.599 16.9457C115.599 15.3843 115.997 14.0219 116.793 12.8585C117.589 11.6951 118.707 10.7919 120.146 10.149C121.585 9.47545 123.238 9.13867 125.106 9.13867C127.555 9.13867 129.698 9.72037 131.535 10.8838C133.402 12.0166 134.719 13.6239 135.484 15.7058L130.387 18.0938C130.019 17.0529 129.346 16.2263 128.366 15.6139C127.417 14.971 126.33 14.6495 125.106 14.6495C124.218 14.6495 123.514 14.8332 122.993 15.2006C122.503 15.568 122.258 16.0732 122.258 16.7161C122.258 17.0529 122.35 17.359 122.534 17.6346C122.718 17.9101 123.008 18.1551 123.406 18.3694C123.835 18.5837 124.355 18.7827 124.968 18.9664L128.963 20.1604C131.045 20.7727 132.637 21.7065 133.739 22.9618C134.841 24.1864 135.393 25.7019 135.393 27.5082C135.393 29.0696 134.979 30.432 134.153 31.5954C133.357 32.7588 132.239 33.6773 130.8 34.3509C129.361 34.9938 127.662 35.3153 125.703 35.3153Z" fill="white"/>
<path d="M102.174 35.3153C99.5107 35.3153 97.1992 34.7336 95.2397 33.5702C93.2803 32.3761 91.7648 30.7841 90.6933 28.7941C89.6217 26.804 89.0859 24.5997 89.0859 22.181C89.0859 19.6705 89.637 17.4356 90.7392 15.4762C91.872 13.5167 93.3875 11.9706 95.2857 10.8379C97.1839 9.70507 99.327 9.13867 101.715 9.13867C103.705 9.13867 105.465 9.46014 106.996 10.1031C108.527 10.7154 109.813 11.5879 110.854 12.7207C111.925 13.8535 112.737 15.17 113.288 16.6702C113.839 18.1397 114.114 19.7471 114.114 21.4922C114.114 21.982 114.084 22.4719 114.023 22.9618C113.992 23.421 113.915 23.819 113.793 24.1558H95.0101V19.1041H109.889L106.629 21.4922C106.935 20.1757 106.92 19.0123 106.583 18.002C106.246 16.961 105.649 16.1497 104.792 15.568C103.965 14.9557 102.94 14.6495 101.715 14.6495C100.521 14.6495 99.4954 14.9404 98.6381 15.5221C97.7809 16.1038 97.1379 16.961 96.7093 18.0938C96.2807 19.2266 96.1123 20.6043 96.2041 22.227C96.0817 23.6353 96.2501 24.8752 96.7093 25.9468C97.1685 27.0184 97.8727 27.8603 98.8218 28.4726C99.7709 29.0543 100.919 29.3452 102.266 29.3452C103.491 29.3452 104.532 29.1002 105.389 28.6104C106.277 28.1205 106.966 27.447 107.455 26.5897L112.966 29.2074C112.477 30.432 111.696 31.5036 110.624 32.4221C109.583 33.3405 108.343 34.06 106.904 34.5805C105.465 35.0703 103.889 35.3153 102.174 35.3153Z" fill="white"/>
<path d="M69.1195 44.8671C68.3847 44.8671 67.6652 44.8059 66.9611 44.6834C66.2875 44.561 65.6905 44.362 65.17 44.0864V38.4378C65.5987 38.5602 66.1038 38.6674 66.6855 38.7592C67.2672 38.8511 67.803 38.897 68.2929 38.897C69.64 38.897 70.6044 38.5755 71.1861 37.9326C71.7678 37.3203 72.2423 36.6161 72.6097 35.8201L74.3089 31.9166L74.217 37.6571L63.1953 9.68945H70.5891L77.891 29.5745H75.1355L82.4374 9.68945H89.8312L79.085 37.106C78.4114 38.8205 77.5848 40.2594 76.6051 41.4228C75.6254 42.5862 74.5079 43.4435 73.2526 43.9946C72.028 44.5763 70.6503 44.8671 69.1195 44.8671Z" fill="white"/>
<path d="M48.6314 34.7639L38.7578 9.68945H46.1975L53.0401 28.656H50.1929L57.0355 9.68945H64.4752L54.6016 34.7639H48.6314Z" fill="white"/>
<path d="M31.1484 34.764V9.68963H38.037V34.764H31.1484ZM31.1484 7.43936V0.550781H38.037V7.43936H31.1484Z" fill="white"/>
<path d="M0 34.764V0.550781H11.1595C14.864 0.550781 18.0787 1.28556 20.8035 2.75513C23.5283 4.22469 25.6408 6.24534 27.141 8.81708C28.6412 11.3888 29.3913 14.3279 29.3913 17.6345C29.3913 20.941 28.6412 23.8954 27.141 26.4978C25.6408 29.0695 23.5283 31.0901 20.8035 32.5597C18.0787 34.0293 14.864 34.764 11.1595 34.764H0ZM7.1182 28.5643H11.3432C13.5782 28.5643 15.507 28.1204 17.1296 27.2325C18.7523 26.3141 20.0075 25.0435 20.8954 23.4209C21.8138 21.7676 22.2731 19.8388 22.2731 17.6345C22.2731 15.3995 21.8138 13.4707 20.8954 11.848C20.0075 10.2254 18.7523 8.97015 17.1296 8.08229C15.507 7.19443 13.5782 6.7505 11.3432 6.7505H7.1182V28.5643Z" fill="white"/>
<path d="M348.257 34.3084C346.425 34.3084 344.832 33.6539 343.479 32.3448C342.17 30.9921 341.516 29.3995 341.516 27.5668C341.516 25.7341 342.17 24.1633 343.479 22.8542C344.832 21.5015 346.425 20.8252 348.257 20.8252C350.09 20.8252 351.661 21.5015 352.97 22.8542C354.322 24.1633 354.999 25.7341 354.999 27.5668C354.999 29.3995 354.322 30.9921 352.97 32.3448C351.661 33.6539 350.09 34.3084 348.257 34.3084Z" fill="#006AEE"/>
</svg>
