<svg width="103" height="37" viewBox="0 0 103 37" fill="none" xmlns="http://www.w3.org/2000/svg">
<path d="M46.6871 11.1841C39.6778 11.2178 33.968 16.9789 34.0001 24.152C34.0323 31.3252 39.7993 37.0321 46.8085 36.9999C53.8178 36.9677 59.5291 31.2052 59.4955 24.035C59.4618 16.8647 53.6964 11.1534 46.6842 11.187L46.6871 11.1841ZM46.7837 31.7393C44.7965 31.751 42.8869 30.9711 41.4748 29.5736C40.0627 28.1761 39.2798 26.2724 39.2578 24.2852C39.2359 22.298 40.0261 20.3884 41.4235 18.9763C42.821 17.5642 44.7248 16.7813 46.712 16.7594C48.6991 16.7374 50.6088 17.5276 52.0209 18.9251C53.433 20.3225 54.2158 22.2263 54.2378 24.2135C54.2583 28.201 50.7697 31.7188 46.7837 31.7393ZM75.0842 17.2642C71.4186 17.2818 68.5637 20.3225 68.5812 23.9881L68.6397 36.258L63.0616 36.2844L62.9489 11.9011L68.5271 11.8748L68.5461 15.6984C68.5461 15.6984 70.9167 11.8646 75.6988 11.8426L77.2938 11.8338L77.3201 17.251L75.0842 17.2642ZM19.4402 12.1089L23.6633 28.8229L28.0474 12.068L33.6255 12.0431L26.7245 36.4731L21.3073 36.498L16.9262 19.4679L12.703 36.5375L7.28439 36.5624L0 12.2128L5.4172 12.188L10.2754 28.899L14.1825 12.147L19.4402 12.1089ZM93.5937 22.917C97.4056 20.6693 100.098 16.5121 100.076 11.7314L94.498 11.7577C94.5185 15.9019 91.1851 19.2645 87.2019 19.2792L86.4044 19.2821L86.3166 0L80.7384 0.0263392L80.9096 36.1995L86.4849 36.1746L86.4322 24.7022L87.0687 24.6993C87.7068 24.6964 88.3462 25.0125 88.5087 25.4895L96.3666 36.1278L102.9 36.0985L93.5937 22.917Z" fill="white"/>
</svg>
