<svg width="9" height="5" viewBox="0 0 9 5" fill="none" xmlns="http://www.w3.org/2000/svg">
<mask id="mask0_94_586" style="mask-type:alpha" maskUnits="userSpaceOnUse" x="-6" y="-15" width="22" height="30">
<rect x="-5.63281" y="-15" width="21" height="30" fill="#D9D9D9"/>
</mask>
<g mask="url(#mask0_94_586)">
<path d="M3.95058 4.76064L0.156977 0.904255C0.104651 0.851064 0.065407 0.79344 0.0392442 0.731383C0.0130814 0.669326 0 0.602837 0 0.531915C0 0.390071 0.0479651 0.265957 0.143895 0.159574C0.239826 0.0531915 0.366279 0 0.523256 0H8.47674C8.63372 0 8.76017 0.0531915 8.8561 0.159574C8.95203 0.265957 9 0.390071 9 0.531915C9 0.567376 8.94767 0.691489 8.84302 0.904255L5.04942 4.76064C4.96221 4.84929 4.875 4.91135 4.78779 4.94681C4.70058 4.98227 4.60465 5 4.5 5C4.39535 5 4.29942 4.98227 4.21221 4.94681C4.125 4.91135 4.03779 4.84929 3.95058 4.76064Z" fill="white"/>
</g>
</svg>
