<svg width="40" height="40" viewBox="0 0 40 40" fill="none" xmlns="http://www.w3.org/2000/svg">
<path fill-rule="evenodd" clip-rule="evenodd" d="M20 0C31.046 0 40 9.17988 40 20.5059C40 29.5639 34.276 37.248 26.334 39.962C25.32 40.164 24.96 39.5236 24.96 38.9776C24.96 38.3016 24.984 36.0937 24.984 33.3497C24.984 31.4377 24.344 30.1898 23.626 29.5538C28.08 29.0458 32.76 27.3116 32.76 19.4356C32.76 17.1956 31.984 15.3677 30.7 13.9317C30.908 13.4137 31.594 11.3279 30.504 8.50393C30.504 8.50393 28.828 7.95446 25.01 10.6065C23.412 10.1525 21.7 9.92404 20 9.91604C18.3 9.92404 16.59 10.1525 14.994 10.6065C11.172 7.95446 9.492 8.50393 9.492 8.50393C8.406 11.3279 9.092 13.4137 9.298 13.9317C8.02 15.3677 7.23801 17.1956 7.23801 19.4356C7.23801 27.2916 11.908 29.0524 16.35 29.5704C15.778 30.0824 15.26 30.9856 15.08 32.3116C13.94 32.8356 11.044 33.7425 9.25999 30.6085C9.25999 30.6085 8.202 28.6382 6.194 28.4942C6.194 28.4942 4.244 28.4683 6.058 29.7403C6.058 29.7403 7.368 30.3703 8.278 32.7403C8.278 32.7403 9.45201 36.4002 15.016 35.1602C15.026 36.8742 15.044 38.4896 15.044 38.9776C15.044 39.5196 14.676 40.154 13.678 39.964C5.72999 37.254 0 29.5659 0 20.5059C0 9.17988 8.956 0 20 0Z" fill="#7E7E7E"/>
</svg>
