<svg width="40" height="40" viewBox="0 0 40 40" fill="none" xmlns="http://www.w3.org/2000/svg">
<path d="M21.4486 0C31.6513 0 39.9989 8.34764 39.9989 18.5503V21.4486C39.9989 31.6513 31.6512 39.9989 21.4486 39.9989H18.5503C8.34764 39.9989 0 31.6513 0 21.4486V18.5503C0 8.34764 8.34764 0 18.5503 0H21.4486ZM20.3641 10.0533L20.106 10.053C17.9569 10.053 15.8078 10.1241 15.8078 10.1241C12.6687 10.1241 10.1241 12.6687 10.1241 15.8078C10.1241 15.8078 10.0588 17.6532 10.0534 19.6339L10.053 19.8929C10.053 22.1107 10.1241 24.4043 10.1241 24.4043C10.1241 27.5433 12.6687 30.088 15.8078 30.088C15.8078 30.088 17.8171 30.159 19.8929 30.159C22.1107 30.159 24.4754 30.088 24.4754 30.088C27.6144 30.088 30.088 27.6144 30.088 24.4754C30.088 24.4754 30.159 22.2076 30.159 20.035L30.1577 19.5252C30.1481 17.5759 30.088 15.7367 30.088 15.7367C30.088 12.5977 27.6143 10.1241 24.4753 10.1241C24.4753 10.1241 22.4292 10.0586 20.3641 10.0533ZM20.106 11.8625C21.8684 11.8625 24.1279 11.9208 24.1279 11.9208C26.702 11.9208 28.2912 13.51 28.2912 16.0841C28.2912 16.0841 28.3495 18.3051 28.3495 20.0477C28.3495 21.8292 28.2912 24.1279 28.2912 24.1279C28.2912 26.7019 26.702 28.2911 24.1279 28.2911C24.1279 28.2911 22.1297 28.3401 20.3959 28.3483L19.9313 28.3494C18.2291 28.3494 16.1551 28.2911 16.1551 28.2911C13.5812 28.2911 11.9208 26.6308 11.9208 24.0568C11.9208 24.0568 11.8626 21.7498 11.8626 19.9312C11.8626 18.2291 11.9208 16.0841 11.9208 16.0841C11.9208 13.51 13.5812 11.9208 16.1551 11.9208C16.1551 11.9208 18.3437 11.8625 20.106 11.8625ZM20.106 14.9563C17.2619 14.9563 14.9563 17.2618 14.9563 20.106C14.9563 22.9501 17.2619 25.2557 20.106 25.2557C22.9501 25.2557 25.2557 22.9501 25.2557 20.106C25.2557 17.2618 22.9501 14.9563 20.106 14.9563ZM20.106 16.7549C21.9567 16.7549 23.457 18.2552 23.457 20.106C23.457 21.9567 21.9567 23.457 20.106 23.457C18.2553 23.457 16.755 21.9567 16.755 20.106C16.755 18.2552 18.2553 16.7549 20.106 16.7549ZM25.5021 13.5272C24.8149 13.5272 24.2578 14.0871 24.2578 14.7777C24.2578 15.4683 24.8149 16.0281 25.5021 16.0281C26.1893 16.0281 26.7464 15.4683 26.7464 14.7777C26.7464 14.087 26.1893 13.5272 25.5021 13.5272Z" fill="#7E7E7E"/>
</svg>
