<svg width="238" height="30" viewBox="0 0 238 30" fill="none" xmlns="http://www.w3.org/2000/svg">
<path d="M216.888 23.6131C215.681 23.6131 214.637 23.4186 213.756 23.0297C212.876 22.6407 212.2 22.088 211.73 21.3715C211.259 20.6346 211.023 19.7646 211.023 18.7615C211.023 17.8199 211.238 16.9908 211.668 16.2743C212.098 15.5374 212.753 14.9232 213.633 14.4319C214.534 13.9406 215.65 13.5926 216.98 13.3879L222.108 12.5589V15.9365L217.81 16.7042C217.154 16.827 216.653 17.042 216.305 17.349C215.957 17.6356 215.783 18.0553 215.783 18.608C215.783 19.1198 215.977 19.5189 216.366 19.8055C216.755 20.0921 217.236 20.2354 217.81 20.2354C218.567 20.2354 219.232 20.0716 219.805 19.7441C220.379 19.4166 220.819 18.9765 221.126 18.4238C221.453 17.8506 221.617 17.2262 221.617 16.5507V12.1904C221.617 11.5558 221.361 11.0235 220.849 10.5937C220.358 10.1638 219.683 9.94883 218.823 9.94883C218.004 9.94883 217.277 10.174 216.643 10.6244C216.029 11.0747 215.578 11.6684 215.292 12.4053L211.607 10.6551C211.934 9.71341 212.456 8.90482 213.173 8.22928C213.889 7.55374 214.749 7.03174 215.752 6.66326C216.755 6.29479 217.85 6.11055 219.038 6.11055C220.45 6.11055 221.699 6.36643 222.784 6.8782C223.869 7.38998 224.708 8.10645 225.302 9.02764C225.916 9.92836 226.223 10.9826 226.223 12.1904V23.2446H221.924V20.5425L222.968 20.3582C222.477 21.0952 221.934 21.7093 221.341 22.2006C220.747 22.6714 220.082 23.0194 219.345 23.2446C218.608 23.4903 217.789 23.6131 216.888 23.6131Z" fill="white"/>
<path d="M197.977 30C197.485 30 197.004 29.9591 196.534 29.8772C196.083 29.7953 195.684 29.6622 195.336 29.478V25.7011C195.623 25.783 195.96 25.8547 196.349 25.9161C196.738 25.9775 197.096 26.0082 197.424 26.0082C198.325 26.0082 198.97 25.7932 199.358 25.3634C199.747 24.9539 200.065 24.4831 200.31 23.9509L201.447 21.3408L201.385 25.1791L194.016 6.47903H198.959L203.842 19.7748H201.999L206.882 6.47903H211.825L204.64 24.8106C204.19 25.957 203.637 26.9191 202.982 27.697C202.327 28.4749 201.58 29.0481 200.74 29.4166C199.921 29.8055 199 30 197.977 30Z" fill="white"/>
<path d="M188.922 23.2446V6.47902H193.528V23.2446H188.922ZM188.922 4.97441V0.368479H193.528V4.97441H188.922Z" fill="white"/>
<path d="M177.692 23.6131C176.054 23.6131 174.591 23.2241 173.301 22.4463C172.011 21.6684 170.988 20.6141 170.23 19.2835C169.493 17.9529 169.125 16.479 169.125 14.8618C169.125 13.2241 169.504 11.7503 170.261 10.4401C171.019 9.10951 172.042 8.05527 173.332 7.27738C174.621 6.49949 176.065 6.11054 177.661 6.11054C178.89 6.11054 179.975 6.34595 180.916 6.81678C181.878 7.26714 182.636 7.91197 183.188 8.75127L182.482 9.67246V0H187.088V23.2446H182.789V20.174L183.219 21.1259C182.646 21.9447 181.868 22.5691 180.885 22.999C179.903 23.4084 178.838 23.6131 177.692 23.6131ZM178.245 19.4677C179.084 19.4677 179.821 19.2733 180.456 18.8843C181.09 18.4954 181.581 17.9529 181.929 17.2569C182.298 16.5609 182.482 15.7625 182.482 14.8618C182.482 13.9611 182.298 13.1627 181.929 12.4667C181.581 11.7707 181.09 11.2282 180.456 10.8393C179.821 10.4504 179.084 10.2559 178.245 10.2559C177.405 10.2559 176.648 10.4606 175.972 10.87C175.317 11.259 174.806 11.8014 174.437 12.4974C174.069 13.173 173.884 13.9611 173.884 14.8618C173.884 15.7625 174.069 16.5609 174.437 17.2569C174.806 17.9529 175.317 18.4954 175.972 18.8843C176.648 19.2733 177.405 19.4677 178.245 19.4677Z" fill="white"/>
<path d="M160.642 23.6131C158.861 23.6131 157.315 23.2242 156.005 22.4463C154.695 21.6479 153.682 20.5834 152.965 19.2528C152.249 17.9222 151.891 16.4483 151.891 14.8311C151.891 13.1525 152.259 11.6581 152.996 10.348C153.753 9.03788 154.767 8.0041 156.036 7.24668C157.305 6.48926 158.738 6.11055 160.335 6.11055C161.665 6.11055 162.843 6.32549 163.866 6.75538C164.89 7.1648 165.749 7.74822 166.445 8.50564C167.162 9.26306 167.704 10.1433 168.073 11.1464C168.441 12.129 168.626 13.2037 168.626 14.3705C168.626 14.6981 168.605 15.0256 168.564 15.3531C168.544 15.6602 168.492 15.9263 168.411 16.1515H155.852V12.7738H165.801L163.62 14.3705C163.825 13.4903 163.815 12.7124 163.59 12.0369C163.365 11.3408 162.965 10.7984 162.392 10.4094C161.839 10 161.154 9.7953 160.335 9.7953C159.536 9.7953 158.851 9.98977 158.278 10.3787C157.704 10.7677 157.274 11.3408 156.988 12.0983C156.701 12.8557 156.589 13.7769 156.65 14.8618C156.568 15.8035 156.681 16.6326 156.988 17.349C157.295 18.0655 157.766 18.6285 158.4 19.0379C159.035 19.4268 159.803 19.6213 160.703 19.6213C161.522 19.6213 162.218 19.4575 162.791 19.13C163.385 18.8025 163.846 18.3521 164.173 17.7789L167.858 19.5292C167.53 20.348 167.008 21.0645 166.292 21.6786C165.596 22.2927 164.767 22.7738 163.805 23.1218C162.842 23.4493 161.788 23.6131 160.642 23.6131Z" fill="white"/>
<path d="M135.719 23.2446V0H140.325V9.79529L139.772 9.05834C140.161 8.05527 140.785 7.31832 141.645 6.84749C142.525 6.35619 143.549 6.11054 144.716 6.11054C145.985 6.11054 147.09 6.37666 148.032 6.9089C148.994 7.44114 149.741 8.18833 150.273 9.15046C150.806 10.0921 151.072 11.1975 151.072 12.4667V23.2446H146.466V13.4493C146.466 12.7943 146.333 12.2313 146.067 11.7605C145.821 11.2897 145.463 10.9212 144.992 10.6551C144.542 10.3889 144.009 10.2559 143.395 10.2559C142.802 10.2559 142.269 10.3889 141.799 10.6551C141.328 10.9212 140.959 11.2897 140.693 11.7605C140.448 12.2313 140.325 12.7943 140.325 13.4493V23.2446H135.719Z" fill="white"/>
<path d="M123.903 23.6131C122.265 23.6131 120.74 23.3163 119.328 22.7226C117.915 22.129 116.677 21.2999 115.612 20.2354C114.548 19.1709 113.718 17.9222 113.125 16.4892C112.531 15.0563 112.234 13.4903 112.234 11.7912C112.234 10.0921 112.521 8.5261 113.094 7.09314C113.667 5.63971 114.476 4.39099 115.52 3.34698C116.564 2.2825 117.782 1.46366 119.174 0.89048C120.586 0.296826 122.122 0 123.78 0C125.438 0 126.922 0.276356 128.232 0.829068C129.563 1.38178 130.689 2.11873 131.61 3.03992C132.531 3.9611 133.186 4.98464 133.575 6.11054L129.368 8.13715C128.98 7.03173 128.294 6.12078 127.311 5.4043C126.349 4.66735 125.172 4.29887 123.78 4.29887C122.429 4.29887 121.242 4.61617 120.218 5.25077C119.194 5.88536 118.396 6.76561 117.823 7.8915C117.27 8.99693 116.994 10.2968 116.994 11.7912C116.994 13.2856 117.291 14.5957 117.884 15.7216C118.478 16.8475 119.287 17.7277 120.31 18.3623C121.354 18.9969 122.552 19.3142 123.903 19.3142C124.947 19.3142 125.919 19.1197 126.82 18.7308C127.741 18.3214 128.478 17.738 129.031 16.9805C129.604 16.2231 129.89 15.3122 129.89 14.2477V12.3439L132.071 14.1863H123.78V10.1945H134.65V12.6203C134.65 14.4831 134.343 16.1105 133.729 17.5026C133.115 18.8741 132.286 20.0205 131.242 20.9416C130.218 21.8424 129.061 22.5179 127.772 22.9683C126.503 23.3981 125.213 23.6131 123.903 23.6131Z" fill="white"/>
<path d="M91.7422 23.2446V0H96.3481V9.79529L95.7954 9.05834C96.1844 8.05527 96.8087 7.31832 97.6685 6.84749C98.5487 6.35619 99.5723 6.11054 100.739 6.11054C102.008 6.11054 103.114 6.37666 104.055 6.9089C105.018 7.44114 105.765 8.18833 106.297 9.15046C106.829 10.0921 107.095 11.1975 107.095 12.4667V23.2446H102.489V13.4493C102.489 12.7943 102.356 12.2313 102.09 11.7605C101.845 11.2897 101.486 10.9212 101.015 10.6551C100.565 10.3889 100.033 10.2559 99.4187 10.2559C98.8251 10.2559 98.2928 10.3889 97.822 10.6551C97.3512 10.9212 96.9827 11.2897 96.7166 11.7605C96.4709 12.2313 96.3481 12.7943 96.3481 13.4493V23.2446H91.7422Z" fill="white"/>
<path d="M84.0454 23.6131C82.203 23.6131 80.596 23.1832 79.2245 22.3234C77.8734 21.4432 76.9522 20.2661 76.4609 18.7922L79.8386 17.1955C80.2685 18.0962 80.8519 18.8025 81.5889 19.3142C82.3258 19.826 83.1447 20.0819 84.0454 20.0819C84.7004 20.0819 85.202 19.9488 85.55 19.6827C85.898 19.4166 86.072 19.0481 86.072 18.5773C86.072 18.3316 86.0106 18.1269 85.8877 17.9632C85.7649 17.7789 85.5807 17.6152 85.335 17.4719C85.0894 17.3286 84.7823 17.2057 84.4138 17.1034L81.5582 16.305C80.1866 15.9161 79.1324 15.2917 78.3954 14.4319C77.6585 13.5517 77.29 12.5179 77.29 11.3306C77.29 10.2866 77.5561 9.37564 78.0884 8.59775C78.6206 7.81986 79.3678 7.21597 80.3299 6.78609C81.292 6.33573 82.3975 6.11055 83.6462 6.11055C85.2839 6.11055 86.7168 6.49949 87.9451 7.27739C89.1938 8.03481 90.074 9.10952 90.5858 10.5015L87.1774 12.0983C86.9318 11.4023 86.4814 10.8495 85.8263 10.4401C85.1917 10.0102 84.465 9.7953 83.6462 9.7953C83.0525 9.7953 82.5817 9.91812 82.2337 10.1638C81.9062 10.4094 81.7424 10.7472 81.7424 11.1771C81.7424 11.4023 81.8038 11.607 81.9266 11.7912C82.0495 11.9754 82.2439 12.1392 82.5101 12.2825C82.7966 12.4258 83.1447 12.5589 83.5541 12.6817L86.2255 13.48C87.6175 13.8895 88.682 14.5138 89.419 15.3531C90.1559 16.172 90.5244 17.1853 90.5244 18.393C90.5244 19.4371 90.248 20.348 89.6953 21.1259C89.1631 21.9038 88.4159 22.5179 87.4538 22.9683C86.4916 23.3982 85.3555 23.6131 84.0454 23.6131Z" fill="white"/>
<path d="M68.3138 23.6131C66.5328 23.6131 64.9873 23.2242 63.6771 22.4463C62.367 21.6479 61.3537 20.5834 60.6372 19.2528C59.9207 17.9222 59.5625 16.4483 59.5625 14.8311C59.5625 13.1525 59.931 11.6581 60.6679 10.348C61.4253 9.03788 62.4386 8.0041 63.7078 7.24668C64.977 6.48926 66.41 6.11055 68.0067 6.11055C69.3373 6.11055 70.5144 6.32549 71.5379 6.75538C72.5615 7.1648 73.4212 7.74822 74.1173 8.50564C74.8337 9.26306 75.3762 10.1433 75.7447 11.1464C76.1132 12.129 76.2974 13.2037 76.2974 14.3705C76.2974 14.6981 76.2769 15.0256 76.236 15.3531C76.2155 15.6602 76.1643 15.9263 76.0825 16.1515H63.5236V12.7738H73.4724L71.2923 14.3705C71.497 13.4903 71.4868 12.7124 71.2616 12.0369C71.0364 11.3408 70.6372 10.7984 70.064 10.4094C69.5113 10 68.8255 9.7953 68.0067 9.7953C67.2083 9.7953 66.5226 9.98977 65.9494 10.3787C65.3762 10.7677 64.9463 11.3408 64.6597 12.0983C64.3731 12.8557 64.2605 13.7769 64.322 14.8618C64.2401 15.8035 64.3527 16.6326 64.6597 17.349C64.9668 18.0655 65.4376 18.6285 66.0722 19.0379C66.7068 19.4268 67.4745 19.6213 68.3752 19.6213C69.194 19.6213 69.89 19.4575 70.4632 19.13C71.0569 18.8025 71.5175 18.3521 71.845 17.7789L75.5297 19.5292C75.2022 20.348 74.6802 21.0645 73.9637 21.6786C73.2677 22.2927 72.4386 22.7738 71.4765 23.1218C70.5144 23.4493 69.4601 23.6131 68.3138 23.6131Z" fill="white"/>
<path d="M46.2111 30C45.7198 30 45.2387 29.9591 44.7679 29.8772C44.3175 29.7953 43.9184 29.6622 43.5704 29.478V25.7011C43.857 25.783 44.1947 25.8547 44.5837 25.9161C44.9726 25.9775 45.3309 26.0082 45.6584 26.0082C46.5591 26.0082 47.2039 25.7932 47.5929 25.3634C47.9818 24.9539 48.2991 24.4831 48.5448 23.9509L49.6809 21.3408L49.6195 25.1791L42.25 6.47903H47.1937L52.076 19.7748H50.2336L55.1159 6.47903H60.0596L52.8744 24.8106C52.424 25.957 51.8713 26.9191 51.2162 27.697C50.5612 28.4749 49.814 29.0481 48.9747 29.4166C48.1558 29.8055 47.2346 30 46.2111 30Z" fill="white"/>
<path d="M32.5159 23.2446L25.9141 6.47903H30.8885L35.4637 19.1607H33.5599L38.1351 6.47903H43.1096L36.5077 23.2446H32.5159Z" fill="white"/>
<path d="M20.8281 23.2446V6.47902H25.4341V23.2446H20.8281ZM20.8281 4.97441V0.368479H25.4341V4.97441H20.8281Z" fill="white"/>
<path d="M0 23.2446V0.368479H7.46162C9.93859 0.368479 12.088 0.859778 13.9099 1.84238C15.7318 2.82498 17.1443 4.17605 18.1474 5.8956C19.1505 7.61515 19.652 9.58035 19.652 11.7912C19.652 14.002 19.1505 15.9775 18.1474 17.7175C17.1443 19.437 15.7318 20.7881 13.9099 21.7707C12.088 22.7533 9.93859 23.2446 7.46162 23.2446H0ZM4.75947 19.0993H7.58445C9.07882 19.0993 10.3685 18.8025 11.4534 18.2088C12.5384 17.5947 13.3777 16.7451 13.9713 15.6602C14.5855 14.5548 14.8925 13.2651 14.8925 11.7912C14.8925 10.2968 14.5855 9.00717 13.9713 7.92221C13.3777 6.83726 12.5384 5.99795 11.4534 5.4043C10.3685 4.81065 9.07882 4.51382 7.58445 4.51382H4.75947V19.0993Z" fill="white"/>
<path d="M232.859 22.9403C231.634 22.9403 230.569 22.5027 229.664 21.6274C228.789 20.723 228.352 19.658 228.352 18.4327C228.352 17.2073 228.789 16.1569 229.664 15.2817C230.569 14.3772 231.634 13.925 232.859 13.925C234.085 13.925 235.135 14.3772 236.01 15.2817C236.915 16.1569 237.367 17.2073 237.367 18.4327C237.367 19.658 236.915 20.723 236.01 21.6274C235.135 22.5027 234.085 22.9403 232.859 22.9403Z" fill="#006AEE"/>
</svg>
