<svg width="175" height="41" viewBox="0 0 175 41" fill="none" xmlns="http://www.w3.org/2000/svg">
<path d="M113.16 7.0415V18.1943C113.16 22.0042 108.588 25.1907 103.116 25.1907C97.6433 25.1907 93.0714 22.0042 93.0714 18.1943V7.18002H88.9844V18.125C88.9844 24.2209 95.3574 29.2085 103.116 29.2085C110.943 29.2085 117.247 24.2209 117.247 18.125V7.0415H113.16Z" fill="white"/>
<path d="M170.238 7.0415V18.1943C170.238 22.0042 165.666 25.1907 160.194 25.1907C154.721 25.1907 150.15 22.0042 150.15 18.1943V7.18002H146.062V18.125C146.062 24.2209 152.435 29.2085 160.194 29.2085C168.022 29.2085 174.325 24.2209 174.325 18.125V7.0415H170.238Z" fill="white"/>
<path d="M124.384 29.2777H120.297V7.0415H124.384V16.0468C130.757 7.7342 142.395 7.0415 142.533 7.0415L142.741 11.1286C141.979 11.1977 124.384 12.2369 124.384 29.2777Z" fill="white"/>
<path d="M82.4024 7.0415V10.3665C79.8394 8.35764 76.3065 7.0415 72.358 7.0415C64.5303 7.0415 58.2266 12.0291 58.2266 18.125C58.2266 24.2209 64.5996 29.2085 72.358 29.2085C76.3065 29.2085 79.8394 27.9615 82.4024 25.8834V28.8621C82.4024 32.672 77.8305 35.8585 72.358 35.8585C67.9939 35.8585 64.1839 33.7804 62.8678 31.0095L58.9193 32.2564C60.7204 36.7591 66.1236 40.0149 72.358 40.0149C79.9779 40.0149 86.2123 35.2351 86.4894 29.2777V7.0415H82.4024ZM72.358 25.1214C66.8855 25.1214 62.3136 21.9349 62.3136 18.125C62.3136 14.315 66.8855 11.1286 72.358 11.1286C77.8305 11.1286 82.4024 14.315 82.4024 18.125C82.4024 21.9349 77.8305 25.1214 72.358 25.1214Z" fill="white"/>
<path d="M32.9447 24.1515C34.8843 24.6362 36.7547 25.2598 38.5557 26.1604C40.3568 26.9916 41.95 28.0307 43.474 29.2083C44.998 30.3859 46.3834 31.7021 47.6996 33.1568C49.0157 34.6115 50.1241 36.1355 51.0939 37.8673H43.8204C42.712 36.5511 41.5344 35.3735 40.2182 34.3345C38.9021 33.2954 37.4474 32.3948 35.9234 31.6328C34.3994 30.8708 32.8062 30.3166 31.1436 29.901C29.4811 29.4855 27.7493 29.2776 25.879 29.2776C24.0086 29.2776 22.2768 29.4856 20.5451 29.901C18.8133 30.3166 17.22 30.8708 15.7653 31.6328C14.2413 32.3948 12.8559 33.2954 11.5397 34.3345C10.2236 35.3735 8.97667 36.5511 7.93758 37.8673H0.664062C1.63387 36.1355 2.74222 34.6115 4.05839 33.0875C5.37451 31.6328 6.75996 30.3167 8.35322 29.1391C9.94648 27.9615 11.609 26.9916 13.3408 26.1604C15.1418 25.3291 17.0122 24.6364 18.9518 24.1515C17.22 23.736 15.6268 23.1817 14.172 22.4889C12.6481 21.7962 11.2627 20.965 9.87722 19.9952C8.49178 19.0254 7.24487 17.9863 6.06725 16.8087C4.88962 15.6311 3.85059 14.3149 2.88078 12.9988C3.36548 12.2368 3.85058 11.544 4.47403 10.8513C5.02816 10.1586 5.65162 9.53515 6.27507 8.9117C6.89852 8.28825 7.52197 7.59554 8.28396 7.04137C8.97668 6.48719 9.6694 5.93298 10.3621 5.44807C10.4313 4.82468 10.5701 4.2705 10.8468 3.7856C11.124 3.30089 11.4703 2.81579 11.8859 2.40016C12.3015 1.98463 12.7865 1.63818 13.3406 1.43036C13.8948 1.22234 14.4489 1.08398 15.0724 1.08398C15.7651 1.08398 16.3886 1.22236 16.9427 1.49955C17.4969 1.77674 18.0511 2.12297 18.4667 2.5386C18.8823 2.95414 19.298 3.50846 19.5058 4.06264C19.9213 4.68609 20.06 5.30943 20.06 6.00216C20.06 6.69488 19.9216 7.31831 19.6444 7.87249C19.3672 8.42667 19.021 8.98089 18.6054 9.39652C18.1898 9.81206 17.6355 10.1585 17.0814 10.4356C16.5272 10.6436 15.9037 10.782 15.211 10.782C15.0727 10.782 14.9338 10.782 14.7263 10.782C14.588 10.782 14.38 10.7819 14.2416 10.7128C14.1033 10.7128 13.9644 10.6436 13.7569 10.5744C13.6186 10.5052 13.4105 10.4361 13.2722 10.3664C12.995 10.5744 12.718 10.782 12.5102 10.9899C12.3022 11.1979 12.0255 11.4054 11.7482 11.6133C11.471 11.8213 11.194 12.0288 10.9862 12.2367C10.7782 12.4448 10.5015 12.6523 10.2935 12.9295C11.3326 13.8993 12.3717 14.7998 13.5492 15.5618C14.7269 16.393 15.9738 17.0858 17.29 17.5707C18.6061 18.1249 19.9915 18.5404 21.4463 18.8175C22.9009 19.0947 24.4249 19.3023 25.8797 19.3023C27.4036 19.3023 28.8583 19.1639 30.313 18.8175C31.7677 18.5403 33.1531 18.0556 34.4693 17.5707C35.7855 17.0165 37.0324 16.3238 38.21 15.5618C39.3876 14.7305 40.4267 13.83 41.4658 12.9295H41.5349C41.5349 12.8603 41.5349 12.7912 41.5349 12.7215C41.5349 12.6523 41.5349 12.5831 41.5349 12.5135C41.5349 12.4443 41.5349 12.3751 41.5349 12.3055C41.5349 12.2363 41.5349 12.1671 41.5349 12.0974C41.5349 11.4047 41.6733 10.7812 41.8813 10.1578C42.0893 9.53432 42.5047 8.9802 42.9204 8.49529C43.4051 8.01059 43.9594 7.66398 44.5829 7.45616C45.2063 7.24814 45.8298 7.10986 46.5225 7.10986C47.2152 7.10986 47.8386 7.24814 48.4621 7.45616C49.0855 7.66418 49.5704 8.07966 50.0553 8.49529C50.4709 8.98 50.8866 9.53432 51.0944 10.1578C51.3716 10.7812 51.51 11.4047 51.51 12.0974C51.51 12.7902 51.3716 13.4135 51.0944 14.037C50.8172 14.6604 50.471 15.1454 50.0553 15.6303C49.6398 16.0458 49.0855 16.4615 48.4621 16.6693C47.8386 16.9465 47.2152 17.0849 46.5225 17.0849C46.3842 17.0849 46.3145 17.0849 46.2453 17.0849C46.1762 17.0849 46.107 17.0849 45.9681 17.0849C45.899 17.0849 45.7601 17.0849 45.6909 17.0157C45.6218 17.0157 45.5526 16.9465 45.4138 16.9465C44.5825 17.7778 43.682 18.5397 42.7122 19.3017C41.7424 20.0637 40.7033 20.7565 39.6642 21.3107C38.6251 21.9341 37.5168 22.4882 36.3391 22.9732C35.3693 23.5273 34.1223 23.8744 32.9447 24.1515Z" fill="white"/>
<path d="M22.8276 6.69515C22.8276 6.62598 22.8276 6.55682 22.8276 6.48714C22.8276 6.41797 22.8276 6.3488 22.8276 6.27913C22.8276 6.20996 22.8276 6.14079 22.8276 6.07112C22.8276 6.00194 22.8276 5.93278 22.8276 5.8631C22.8276 5.44757 22.7584 5.03185 22.7584 4.61627C22.6892 4.20073 22.6201 3.71571 22.4812 3.36935C22.3429 2.95382 22.1349 2.53805 21.9271 2.19169C21.719 1.84533 21.4423 1.42972 21.2344 1.15264C21.5807 1.08347 21.9271 1.01427 22.3427 1.01427C22.7582 1.01427 23.1739 0.945087 23.5896 0.945087C24.0051 0.945087 24.4209 0.875981 24.8365 0.875981C25.1828 0.667962 25.5985 0.667969 25.9448 0.667969C27.4688 0.667969 28.9235 0.806252 30.3782 1.01427C31.8329 1.22229 33.2184 1.5685 34.6038 2.0534C35.9892 2.46894 37.3054 3.02316 38.5523 3.71588C39.7992 4.33933 41.0461 5.10133 42.1544 5.9326C41.7389 6.20978 41.3924 6.55603 41.046 6.90239C40.6997 7.24875 40.4226 7.66434 40.1455 8.07997C39.9375 8.4955 39.6608 8.91124 39.4528 9.39615C39.2448 9.88085 39.1064 10.366 39.0373 10.8509C38.1368 10.1582 37.167 9.53469 36.1279 8.98051C35.0888 8.42633 33.9804 8.0107 32.9414 7.59507C31.833 7.24871 30.7246 6.97161 29.5471 6.7638C28.3694 6.62545 27.1225 6.48668 25.9449 6.48668C25.6677 6.48668 25.3908 6.48668 25.1137 6.48668C24.8365 6.48668 24.5595 6.48668 24.2824 6.48668C24.0052 6.48668 23.7282 6.48661 23.5204 6.55578C23.3124 6.55578 23.1048 6.62598 22.8276 6.69515Z" fill="#2777C6"/>
<path d="M21.375 13.345C21.375 12.6523 21.5133 12.0289 21.7905 11.4747C22.0677 10.9206 22.414 10.3663 22.8296 9.95071C23.2452 9.53518 23.7994 9.11947 24.3536 8.91166C24.9078 8.63447 25.5312 8.49609 26.2239 8.49609C26.9167 8.49609 27.5401 8.63447 28.1635 8.91166C28.787 9.18884 29.2719 9.53508 29.7568 9.95071C30.1723 10.3662 30.5188 10.9206 30.7959 11.4747C31.0039 12.0289 31.1422 12.6523 31.1422 13.345C31.1422 14.0377 31.0039 14.6612 30.7959 15.2153C30.5878 15.7695 30.2417 16.3237 29.7568 16.7394C29.3413 17.1549 28.787 17.5706 28.1635 17.7784C27.5401 18.0556 26.9167 18.194 26.2239 18.194C25.5312 18.194 24.9078 18.0556 24.3536 17.7784C23.7994 17.5012 23.2453 17.155 22.8296 16.7394C22.4141 16.3238 21.9983 15.7695 21.7905 15.2153C21.5133 14.6612 21.375 14.0377 21.375 13.345Z" fill="white"/>
</svg>
