<svg width="175" height="88" viewBox="0 0 175 88" fill="none" xmlns="http://www.w3.org/2000/svg">
<path d="M110.95 30.7969C103.965 30.8305 98.2742 36.5719 98.3063 43.7207C98.3383 50.8694 104.086 56.5569 111.071 56.5248C118.056 56.4928 123.748 50.7498 123.715 43.604C123.681 36.4582 117.935 30.7663 110.947 30.7998L110.95 30.7969ZM111.046 51.2821C109.066 51.2938 107.163 50.5165 105.755 49.1238C104.348 47.7311 103.568 45.8338 103.546 43.8534C103.524 41.873 104.312 39.9698 105.704 38.5625C107.097 37.1553 108.994 36.375 110.975 36.3532C112.955 36.3313 114.858 37.1188 116.266 38.5115C117.673 39.9042 118.453 41.8015 118.475 43.7819C118.495 47.7559 115.019 51.2617 111.046 51.2821ZM139.25 36.8563C135.597 36.8738 132.752 39.9042 132.77 43.5573L132.828 55.7855L127.269 55.8117L127.156 31.5115L132.716 31.4853L132.735 35.2959C132.735 35.2959 135.097 31.475 139.863 31.4532L141.453 31.4444L141.479 36.8432L139.25 36.8563ZM83.7958 31.7186L88.0046 48.3757L92.3738 31.6778L97.9329 31.653L91.0554 55.9998L85.6567 56.0246L81.2904 39.0525L77.0817 56.064L71.6815 56.0888L64.4219 31.8221L69.8206 31.7973L74.6623 48.4515L78.556 31.7565L83.7958 31.7186ZM157.697 42.4898C161.496 40.2498 164.179 36.1067 164.157 31.3423L158.598 31.3686C158.619 35.4986 155.296 38.8498 151.327 38.8644L150.532 38.8673L150.445 19.6509L144.885 19.6771L145.056 55.7271L150.612 55.7023L150.56 44.269L151.194 44.2661C151.83 44.2632 152.467 44.5782 152.629 45.0536L160.46 55.6557L166.972 55.6265L157.697 42.4898Z" fill="white"/>
<path d="M51.5547 31.0771C45.5216 31.1062 40.9336 35.0977 39.2172 41.4575C36.337 37.0242 34.0897 31.9535 32.8005 27.6719L26.4495 27.701L26.5282 44.5346C26.5352 46.1351 25.9064 47.6729 24.78 48.8099C23.6536 49.947 22.1218 50.5902 20.5214 50.5983C18.9209 50.6053 17.3831 49.9765 16.246 48.8501C15.109 47.7237 14.4657 46.1919 14.4576 44.5915L14.3774 27.7579L8.02344 27.7871L8.10219 44.6206C8.13573 51.606 13.7168 57.1419 20.5476 57.1083C27.3784 57.0748 32.9114 51.4908 32.8793 44.504L32.8647 41.6456C34.1451 44.1787 35.7464 46.8708 37.5066 49.2465L33.623 67.8446L40.133 67.8154L42.933 54.3025C45.4807 55.8804 48.3289 56.8181 51.6772 56.8021C58.6655 56.7685 64.3574 51.0271 64.3209 43.7208C64.2944 40.3546 62.9372 37.1356 60.5457 34.7665C58.1541 32.3973 54.9225 31.0705 51.5561 31.0756L51.5547 31.0771ZM51.6451 50.2935C49.1047 50.3052 46.5599 49.2056 44.4876 47.4673L45.1103 44.9254V44.7796C45.577 42.0758 46.9799 37.4646 51.7457 37.4442C53.4261 37.4414 55.0396 38.1024 56.2351 39.2834C57.4305 40.4643 58.1112 42.0697 58.1289 43.75C57.9859 47.4031 54.9832 50.276 51.6466 50.2921L51.6451 50.2935Z" fill="#6FDA44"/>
</svg>
